<?xml version="1.0" encoding="utf-8"?>
<!-- Generator: Adobe Illustrator 20.1.0, SVG Export Plug-In . SVG Version: 6.00 Build 0)  -->
<svg version="1.1" xmlns="http://www.w3.org/2000/svg" xmlns:xlink="http://www.w3.org/1999/xlink" x="0px" y="0px"
	 viewBox="0 0 511 800" style="enable-background:new 0 0 511 800;" xml:space="preserve">
<style type="text/css">
	.st0{display:none;}
	.st1{display:inline;}
	.st2{fill:#A96704;}
	.st3{fill:#F4A20D;}
	.st4{fill:#FECD52;}
	.st5{fill:#614324;}
	.st6{fill:#3781E4;}
	.st7{fill:#F5D892;}
	.st8{fill:#8D3552;}
	.st9{fill:#FFFFFF;}
	.st10{fill:none;stroke:#000000;stroke-width:4;stroke-miterlimit:3;}
	.st11{fill:none;stroke:#B3B3B3;stroke-width:2;stroke-miterlimit:10;}
	.st12{fill:#808080;}
	.st13{fill:#999999;}
	.st14{fill:#B3B3B3;}
	.st15{fill:#CCCCCC;}
	.st16{fill:#009245;stroke:#8CC63F;stroke-miterlimit:10;}
	.st17{fill:#E6E6E6;}
</style>
<g id="Layer_1" class="st0">
	<g transform="matrix( 0.9936065673828125, 0, 0, 0.9936065673828125, 257.15,400) " class="st1">
		<g transform="matrix( 1, 0, 0, 1, 0,0) ">
			<g>
				<g id="Levity_0_Layer0_0_FILL">
					<path class="st2" d="M-54,169.8c2.3-5.3,4.9-10.4,7.9-15.5c2.1-3.6,4.4-7.1,7-10.7c-8.2,1.9-16.4,4.4-24.7,7.6
						c-7.1,2.7-13.3,5.5-18.6,8.3C-72.3,164.3-62.8,167.7-54,169.8 M-121.6,101.8c-0.2,0.2-0.5,0.4-0.7,0.6c-1.4,1.2-2.7,2.5-4,3.8
						c10.4,19.8,29.4,32,57,36.7c4.1-5,8.5-9.9,13-14.8c1-1,1.9-2.1,2.9-3.1c-20.7-0.1-39.9-10.9-57.6-32.6
						C-114.7,95.5-118.2,98.6-121.6,101.8 M-111,92.4c1-0.9,2-1.7,3-2.5c-8.6-7.9-12.9-19.3-13-34.3c-4.9,5.1-9.9,10.5-15,16.2
						c1.5,14,6.1,24.2,13.8,30.6c0.2-0.2,0.5-0.4,0.7-0.6C-118.2,98.6-114.7,95.5-111,92.4 M-64.5-101.8c-7.6-19-12.4-32.4-14.4-40
						c-1.9-7-3.1-13.7-3.7-20.3c-2.1-7.6-2.5-15.6-1-23.8c0.2-1.2,0.4-2.4,0.8-3.5c-2.4,3.1-9.3,10.3-20.4,21.4
						c-13.8,13.7-25.2,25.5-34.3,35.5c-1.4,1.5-2.8,3.1-4.2,4.6c-32.1,35.9-59.2,74-81.4,114.3c32.8,23.6,69.8,30.1,111,19.5
						c3.9-21,10.4-42.7,19.5-65c-9.1,22.3-15.6,44-19.5,65C-96.4-7.4-79.6-11.3-61.8-5.5c2.1-4.9,4.1-9.9,5.9-15
						c-0.1-0.1-0.1-0.3,0-0.6c0.2-0.3,0.3-0.5,0.3-0.6c4.6-12.8,5.7-26.5,3.2-40.9C-53.9-72.4-58-85.4-64.5-101.8 M49.4,157.1
						c-0.5,1.2-1,2.3-1.5,3.5c-2.8,6.1-6.3,12.1-10.5,18c1.4,0.6,2.5,1.7,3.3,3.3c8.3,0.1,17.4-0.5,27.5-1.8
						C64.4,170.2,58.2,162.6,49.4,157.1 M13.3,137.3c-0.7,1.3-1.2,4.4-1.4,9.3c2.3-1,6.8-2.2,13.3-3.6c8.1-1.8,14.3-2.7,18.7-2.7
						c-10.5-1.4-17.4-2.3-20.6-2.6C19.9,137.3,16.6,137.2,13.3,137.3 M44.9,127.8c-0.2,1.1-0.3,2.1-0.4,3.1
						c12.4,3.4,20.3,8.7,23.5,15.9c0.3-6.4,0.8-13.6,1.5-21.6c0-0.1,0-0.2,0-0.3c-4.6-6.8-11.7-11.6-21.2-14.6
						C46.8,116.7,45.6,122.5,44.9,127.8 M48.7,109.1c0.2-1,0.5-2,0.8-3c-10-7.8-23.7-11.5-41-11c-18,0.5-33.6,5.4-46.8,14.8
						c-5.2,5-10.2,10-15,15c-1,1-1.9,2.1-2.9,3.1c45.6-19.2,79.3-19.3,101.2-0.3c0.7-5.3,1.8-11.1,3.4-17.3
						C48.5,110,48.6,109.6,48.7,109.1z"/>
					<path class="st3" d="M-144.3,124.4c-1.3,1.4-2.6,2.9-3.8,4.3c16,20.4,34.6,33.6,55.9,39.5c11.7,3.2,24.2,4.3,37.5,3.2
						c0.2-0.6,0.5-1.1,0.7-1.6c-8.8-2.1-18.3-5.5-28.4-10.2c6.7-8.6,11.1-14.2,13.1-16.7c-27.6-4.7-46.6-16.9-57-36.7
						c-5.2,4.9-10.2,9.9-15,15C-142.3,122.3-143.3,123.3-144.3,124.4 M-136.1,71.8c-6.7,7.6-13.6,15.7-20.5,24.3
						c2.2,6.5,5.3,12.6,9.5,18.3c1.7,2.4,3.7,4.6,5.8,6.8c4.8-5.1,9.8-10.1,15-15c1.3-1.3,2.6-2.6,4-3.8
						C-130,96-134.6,85.8-136.1,71.8 M-57.3-322.7c-5.1,3.5-10.5,7.9-16.3,13.3c-0.7,0.6-1.4,1.2-2,1.9c-0.8,6.5-0.2,11.1,1.8,14
						c3.9,0.2,7.6,1.6,11.1,4.4c8.5-3.2,17.3-5.5,26.3-6.9c-1.9-13.1-1.7-26,0.5-38.5C-43.4-331.4-50.5-327.5-57.3-322.7
						 M44.5,130.9c-0.3,3-0.5,6.1-0.5,9.4c-4.4,0-10.6,0.9-18.7,2.7c-6.6,1.5-11,2.7-13.3,3.6c6.9,0.3,13.9,1.4,21.1,3.5
						c7,2,12.5,4.3,16.3,7c8.8,5.5,15,13.1,18.7,22.9c-1-4.9-1-15.9-0.1-33.1C64.8,139.6,57,134.3,44.5,130.9 M44.5,130.9
						c0.1-1,0.2-2.1,0.4-3.1C23,108.9-10.7,109-56.3,128.1c-4.5,4.9-8.9,9.8-13,14.8c-2.1,2.5-6.4,8.1-13.1,16.7
						c5.3-2.9,11.5-5.6,18.6-8.3c8.3-3.2,16.5-5.7,24.7-7.6c3.2-0.8,6.6-1.5,10-2.1c12.4-2.4,26.6-3.8,42.5-4.2
						c3.2-0.1,6.6,0,10.1,0.4c3.2,0.3,10.1,1.2,20.6,2.6C44,137.1,44.2,133.9,44.5,130.9 M64.9,61.3c-4.1,10.6-7.4,19.5-9.9,26.8
						c-2.2,6.4-4,12.4-5.5,18c-0.3,1-0.6,2-0.8,3c-0.1,0.4-0.2,0.9-0.3,1.3c9.5,3,16.6,7.8,21.2,14.6c0.3-4.8,0.7-9.9,1.2-15.3
						c3.4-39.9,4.4-63.9,3.2-72C73.7,38.5,70.7,46.3,64.9,61.3 M74,37.7c0.7-1.8,1-3.7,0.8-5.7C70,38.6,62.1,44.6,51.1,49.9
						c-12.3,6-25,9.2-38.1,9.7c-15.6,0.6-29.9-2.9-42.8-10.4c-15.2-8.9-27.7-23-37.5-42.4c-10.2,7.5-24.8,20.3-43.6,38.6
						c-3.4,3.2-6.7,6.6-10.1,10.1c0.1,15,4.4,26.4,13,34.3C-92.7,77-75.7,64.8-57.3,53.2C-75.7,64.8-92.7,77-108.1,89.9
						c-1,0.8-2,1.6-3,2.5c17.7,21.7,36.9,32.5,57.6,32.6c4.8-5.1,9.8-10.1,15-15c4.4-4.2,8.9-8.3,13.6-12.3
						c22.4-19.5,41-32,55.8-37.4C16.2,65.6-2.4,78.1-24.7,97.6c-4.7,4.1-9.2,8.2-13.6,12.3c13.2-9.4,28.8-14.3,46.8-14.8
						c17.3-0.5,31,3.2,41,11c1.5-5.6,3.3-11.6,5.5-18c2.5-7.3,5.8-16.2,9.9-26.8C70.7,46.3,73.7,38.5,74,37.7 M57.2-182.9
						L57.2-182.9c-1.5-0.8-2.7-1.4-3.8-1.9c-5.2-2.3-9.8-3.8-13.8-4.4c-5.4,1.2-11.1,1.5-17.2,1c-1.1-0.1-2.1-0.2-3.1-0.4
						c-1.7,6.4-1.3,13.4,1.3,21.1c-2.6-7.6-3-14.6-1.3-21.1c-10-1.3-21-5.3-32.9-11.9c-4.3-2.4-8-4.6-11.2-6.8
						c-3.2-2.2-5.9-4.2-8.1-6.2c0.6,1.7,1.3,3.8,2.1,6.3l3.2,9.2l-3.2-9.2c-3,0.1-7.9,0.4-14.6,0.8c-3.4,0.2-6.2,0.4-8.6,0.5
						c5.3,1.3,10.3,4,15,8.1c5.3,4.6,15.7,15.1,31.1,31.5c16.5,17.7,29.4,32.2,38.7,43.7c2.7,1.9,5.5,3.8,8.2,5.8
						c5.3-8.3,9.3-15.4,11.8-21.3C55.3-148.4,57.4-163.4,57.2-182.9 M91-302.6l-2.6-2.1l-3.7-2.8c-12.3-8.9-27.2-15.9-44.8-21
						c-26.7-7.9-52-9.9-75.9-6c-2.2,12.5-2.4,25.4-0.5,38.5c17.7,13.4,36.7,24.1,57,32L48-285.1c0-4.9-0.2-10.4-0.7-16.5
						c0.5,6.1,0.7,11.6,0.7,16.5c4,8.6,7.2,17.1,9.5,25.4c9,0.6,17.9,0,26.6-1.9l6.9-1.8l2.5-0.8l1.9-4c3.7-8.2,5.8-16.2,6.3-24
						C98.5-296,94.9-299.4,91-302.6 M3.2-317.7c0.9,3.3,1.1,7.3,0.7,11.9c-0.5,4.7-1.6,8.6-3.1,12c-1.6,3.3-3.3,4.9-5.1,4.9
						c-1.8,0-3.1-1.6-4-4.9c-0.9-3.3-1.1-7.3-0.6-12c0.4-4.7,1.4-8.6,3-11.9s3.3-4.9,5.1-4.9C1-322.6,2.3-321,3.2-317.7 M59.4-298.9
						c1.6-3.3,3.3-4.9,5.1-4.9c1.8,0,3.1,1.6,4,4.9c0.9,3.3,1.1,7.3,0.7,12c-0.5,4.7-1.6,8.6-3.2,12c-1.6,3.3-3.3,4.9-5.1,4.9
						c-1.8,0-3.1-1.6-4-4.9c-0.9-3.3-1.1-7.3-0.6-12C56.8-291.7,57.8-295.6,59.4-298.9 M85.9-326.1c-0.2-1-0.5-1.9-0.7-2.8
						c-1.1-4-3-8.9-5.7-14.9c-2.9-2-6.2-3.8-10.1-5.5c-8.2-3.5-18.6-6.3-31.4-8.4c-2.5-0.4-4.9-0.8-7.3-1c-13.9-1.8-25.9-1.8-36.2,0
						c-1.9,0.3-3.7,0.7-5.5,1.1c-6.6,1.7-12.3,3.9-17.3,6.6c-5.2,2.8-11.7,8.5-19.5,17.1c-3,3.3-6.1,6.9-9.5,11
						c6.8-4.7,13.9-8.7,21.3-11.8c23.9-3.9,49.2-1.9,75.9,6c17.6,5.2,32.5,12.2,44.8,21l3.7,2.8l-0.1-2.3l-0.1-2.6
						C87.8-315.9,87-321.4,85.9-326.1 M54.6-330.5c11.4-12.4,19.5-8,24.3,13C74.1-338.5,66-342.9,54.6-330.5 M-6.6-340.7
						c19.7-13.1,31.2-11.9,34.4,3.8C24.6-352.5,13.1-353.8-6.6-340.7z"/>
					<path class="st4" d="M-141.3,121.2c-2.1-2.2-4-4.5-5.8-6.8c-1.2,7.4-2.8,12.8-4.8,16.3c-1.5,2.7-4.9,6.6-10.2,11.6
						c-9.8,9.3-18.4,20.1-25.9,32.4c-7.5,12.4-14.6,32.1-21.2,59.3c-1.7,6.9-3.4,14.3-5.2,22.1c-1.3,5.7-2.6,11.6-3.9,17.8
						c1.3-6.2,2.6-12.1,3.9-17.8c-7,3.2-12,7.9-15,14c-2.1,4.2-3.8,11.1-5.3,20.9c-1.1,7.5-2,15-2.9,22.4
						c-1.4,11.5-2.1,19.5-2.1,24.2c0,19.7,4.8,35.5,14.3,47.5c4,5,8.6,8.9,13.8,11.6c4.8,2.6,9.6,3.9,14.4,3.9
						c6.9,0,12.1-1.9,15.6-5.6c2.6-2.7,3.9-5.8,3.9-9.3c0-1.6-0.4-4-1.3-7.2c-1.2-4.2-2.2-7.7-2.9-10.5c-2.8-11.1-4.3-22.6-4.3-34.4
						c0-18,3.4-35,10.3-51.2c7.4-17.4,20.6-38.6,39.8-63.8c4.4-5.8,10.9-13.4,19.3-22.9c11.7-13,18.6-20.7,20.6-23.1
						c1.3-1.5,2.5-2.9,3.7-4.4c-21.3-5.9-39.9-19.1-55.9-39.5c1.3-1.4,2.6-2.9,3.8-4.3C-143.3,123.3-142.3,122.3-141.3,121.2
						 M-35.1-377c3.9-2.7,8.1-5.3,12.7-7.6c-3-2.2-8.1-3.9-15.2-5.1c-7.4-1.3-13.3-1.4-17.8-0.4c-9.1,8-16.4,18.9-21.8,32.6
						c-5.5,13.7-8.4,25.3-8.8,34.8c-0.4,9.5-0.3,16.9,0.1,22.3c0.5,5.8,0.8,9.5,1.1,11.3c1.6-2.2,3.8-3.6,6.8-4.2
						c1.4-0.2,2.8-0.3,4.1-0.3c-2-2.9-2.6-7.5-1.8-14c0.7-0.6,1.3-1.3,2-1.9c1.3-9.9,3-18.1,5.1-24.6c2.3-7.3,5.4-13.7,9.3-19.2
						c0.9-1.3,1.9-2.6,2.9-3.9C-49.4-365.2-42.4-371.9-35.1-377 M12,146.6c0.2-5,0.7-8.1,1.4-9.3c-15.9,0.4-30.1,1.8-42.5,4.2
						c-3.4,0.7-6.8,1.4-10,2.1c-2.6,3.5-4.9,7.1-7,10.7c-3,5.1-5.6,10.2-7.9,15.5c-0.2,0.5-0.5,1.1-0.7,1.6
						c-5.5,13.2-8.7,27-9.5,41.5c-0.2,3.7,0.6,7.3,2.6,10.9c2,3.7,5,6.8,8.8,9.5c8.9,6.2,19.9,8.4,33,6.6c1.1-0.2,3.2-0.5,6.5-1
						c2.6-0.4,5.5-1.2,8.8-2.2c5.1-1.6,9.9-3.8,14.3-6.6c-4.5,2.8-9.2,5-14.3,6.6c-3.3,1-6.2,1.8-8.8,2.2c0.2,6.8-2.7,15.8-8.9,26.9
						c-6.1,11.2-10.3,19.1-12.5,23.8c-2.3,4.7-1.9,9,1,13c2.9,4,8.8,6,17.7,6c7.1,0,13.8-1.9,20.3-5.5c7.3-4.1,13.7-10.3,19.1-18.5
						C36.5,265,43,236,43,197.7c0-6.1-0.5-10.6-1.5-13.6c-0.3-0.8-0.6-1.5-0.9-2.2c-0.8-1.5-1.9-2.6-3.3-3.3c-0.8,1-1.5,2.1-2.3,3.1
						c-1.2,1.5-2.4,2.9-3.6,4.4C24.3,194.5,16.5,201.4,8,207c-9.1,6-18.2,9.9-27.2,11.6c9-1.7,18.1-5.6,27.2-11.6
						c8.5-5.6,16.3-12.6,23.4-20.9c1.2-1.5,2.4-2.9,3.6-4.4c0.8-1,1.6-2.1,2.3-3.1c4.2-5.8,7.7-11.8,10.5-18
						c0.5-1.2,1.1-2.4,1.5-3.5c-3.8-2.7-9.3-5-16.3-7C25.9,148.1,18.9,146.9,12,146.6 M163.9,43c0.1,0.9,0.1,1.7,0.2,2.4
						c0.1,0.8,0.1,1.7,0.1,2.5c1.4,7.3,2.2,11.7,2.4,13.3c1.1,7,1.6,13.9,1.6,20.7c0,14.7-2.1,27.7-6.4,38.8c-1.5,3.9-3.2,7.3-5,10
						c-0.2,0.2-0.3,0.4-0.4,0.6c0.2,0.1,0.5,0.3,0.8,0.4c1.3,0.6,2.8,0.9,4.6,0.9c4.2,0,8-2.9,11.4-8.7c3.3-5.7,5-12,5-18.7
						c0-9.1-1.9-20.6-5.8-34.4C169.9,62.6,167.2,53.4,163.9,43 M164.2,47.9c0,0.2,0,0.3,0.1,0.5c0,1.3,0.1,2.5,0.1,3.6
						c0,18.3-3.6,34-10.6,47.3c-6.3,11.8-13.3,18.1-21.1,19.1c-2.7,4.8-4.1,9.5-4.1,13.9c0,5.3,4.2,8,12.4,8c6,0,11.1-3,15.4-9.1
						c0.1-0.2,0.3-0.4,0.4-0.6c1.8-2.8,3.5-6.1,5-10c4.3-11.1,6.4-24.1,6.4-38.8c0-6.9-0.5-13.8-1.6-20.7
						C166.5,59.6,165.6,55.2,164.2,47.9 M79.7-0.3c1-6.2,1.8-12.2,2.6-18.1c-19-16.7-39.6-31.7-61.8-45.1
						c-30.2-18.2-54.3-36.2-72.3-53.9c-16.4-16.1-26.6-30.7-30.5-43.8c-0.1-0.3-0.2-0.6-0.3-0.8c0.6,6.6,1.9,13.3,3.7,20.3
						c2,7.7,6.8,21,14.4,40c6.5,16.4,10.6,29.4,12.2,39.1c2.5,14.5,1.4,28.1-3.2,40.9c0,0.1-0.2,0.3-0.3,0.6c-0.1,0.3-0.2,0.5,0,0.6
						C-45-5.7-32.3,5.4-17.9,12.8C-5.3,19.3,7.9,22.7,21.8,23c12.4,0.2,24-1.9,34.8-6.5C66.9,12.2,74.6,6.6,79.7-0.3 M30.6-122.5
						c2.2,2.8,4.5,5.5,6.6,8.3c3.1,4,6.1,8,9.1,11.9c-3-4-6-7.9-9.1-11.9C35.1-117,32.9-119.7,30.6-122.5
						C21.3-134,8.4-148.6-8.1-166.2c-15.4-16.4-25.8-26.9-31.1-31.5c-4.8-4.1-9.8-6.8-15-8.1c-0.9-0.2-1.7-0.4-2.6-0.6
						c-6.5-1.1-12.5,0.1-17.8,3.4c-3.8,2.4-6.5,7-8.2,13.7c-0.3,1.1-0.6,2.2-0.8,3.5c-1.5,8.2-1.2,16.1,1,23.8
						c0.1,0.3,0.2,0.6,0.3,0.8c4,13.1,14.1,27.7,30.5,43.8c18.1,17.7,42.2,35.7,72.3,53.9c22.2,13.4,42.8,28.4,61.8,45.1
						c4.5,4,8.9,8,13.3,12.1c14.3,13.2,26.9,40.6,37.7,82c0.7-1.6,1.4-3.2,2.1-4.9c4.5-10.9,6.5-23.1,5.9-36.7
						c0.5,13.6-1.4,25.8-5.9,36.7c-0.7,1.7-1.4,3.3-2.1,4.9c-3.6,8.5-6.8,15-9.4,19.7c-3.1,5.5-4.8,9.6-5,12.3
						c-0.2,2.6,0.9,5.1,3.1,7.4c2.2,2.3,5,3.4,8.4,3.4c0.7,0,1.4,0,2.1-0.1c7.8-1,14.9-7.3,21.1-19.1c7.1-13.3,10.6-29.1,10.6-47.3
						c0-1.2,0-2.4-0.1-3.6c0-0.2-0.1-0.4-0.1-0.5c0-0.8-0.1-1.6-0.1-2.5c0-0.7-0.1-1.5-0.2-2.4c-0.3-3.5-0.9-7.8-1.8-13.1
						c-1-6.2-1.5-9.4-1.5-9.6c0-1.9,0.3-3.4,0.9-4.4c1.1-1.8,3.2-2.7,6.3-2.7c2.8,0,5.2,0.9,7.2,2.5c1.2,1,2.8,2.9,4.9,5.6
						c4.8,5.4,11.5,8.3,20,8.7c8.5,0.4,14.7-0.9,18.6-3.9c3.9-3,5.7-5.9,5.4-8.6c-0.3-2.8-1.9-4.9-4.9-6.3s-7.2-2.8-12.5-4.1
						c-5.3-1.3-11-3.4-17-6.4c-6-3-10-5.5-12-7.4c-3.7-3.8-7-7.1-9.9-9.9c-5.5-5.2-10.4-9.3-14.7-12.3c-8.2-5.6-14.5-9.1-18.8-10.5
						c-3.3-1.1-7.7-1.7-13.1-1.8c-1.7,0-4.7,0.2-8.9,0.8c4.2-0.6,7.2-0.8,8.9-0.8c-11.1-12.6-22.5-24.4-34.2-35.4
						c-15.4-14.6-31.3-27.9-47.8-39.8C36.1-118.6,33.4-120.6,30.6-122.5 M57.2-183L57.2-183c0.2,19.6-1.9,34.6-6.5,45
						c-2.6,5.9-6.5,13-11.8,21.3c16.5,12,32.4,25.2,47.8,39.8c0.1-10-0.3-19.3-1.1-27.8C82.5-136.8,73.1-162.9,57.2-183
						 M230.1-303.5c-2.6-0.3-6.2,1.4-10.9,4.9c-4.7,3.5-7.8,6.3-9.4,8.3c-1.6,2-3.2,4.2-4.6,6.8c-1.4,2.5-2.1,5.9-2.1,10.2
						c0,1.6,0.5,5.3,1.6,11c0.3,1.1,0.7,1.7,1.1,1.7c0.1,0,0,0.6-0.3,2c0.3-1.3,0.9-3,1.6-5.1c1.5-4.2,3.5-8.7,5.9-13.5
						c4-7.8,8.4-11.7,13.2-11.8c4.8-0.1,10,2.4,15.6,7.5c5.6,5.1,9.2,9.9,10.7,14.6c0-0.2-0.1-0.5-0.2-1c-0.1-0.5-0.4-1.9-0.9-4.4
						c-0.5-2.4-1-4.4-1.4-5.9c-0.4-1.5-1.1-3.1-2.1-4.8c-1-1.7-1.8-3.1-2.6-4.1c-0.6-0.8-2.6-3.6-6.1-8.5S232.7-303.3,230.1-303.5
						 M218.7-311.7c-1.8,1.8-3.5,3.7-5.2,5.9c-8.2,10.3-12.3,19.7-12.3,28.2c0,0.7,0.2,1.6,0.6,2.5c0.4,0.8,0.8,1.4,1.2,1.7
						c0-4.3,0.7-7.7,2.1-10.2c1.4-2.5,3-4.8,4.6-6.8c1.6-2,4.7-4.8,9.4-8.3c4.7-3.5,8.3-5.2,10.9-4.9c2.6,0.3,5.6,2.9,9.1,7.8
						s5.6,7.7,6.1,8.5c-2.2-10.5-4-18.1-5.3-22.9c-1.4-4.8-3.7-7.5-6.9-8.2c-3.3-0.7-6.1-0.2-8.4,1.6
						C222.3-315,220.3-313.3,218.7-311.7 M202-320.3c-0.1,0.5-0.2,2.1-0.4,4.9c-0.1,2.2-0.4,4-0.8,5.4c-1.1,4.2-2,7.1-2.5,8.6
						c-0.7,1.8-4,10.8-9.9,26.8c-0.6,2.4-1.4,7.4-2.3,15.1c-1,8.5-1.2,13.7-0.7,15.6c0.5,1.8,1.8,4.8,4,9.1
						c1.3,2.4,3.3,6.4,6.1,11.9c5.1,10.4,6.9,17.2,5.3,20.6c-5.8,10-11.7,19.4-17.8,28c-7.4,10.4-13.7,17.8-19.1,22.4
						c-12.5-0.6-20.5-1-24.1-1.3c-9.1-0.7-15.9-1.6-20.2-2.8c-1.1-0.3-2.3-0.6-3.4-0.9c-10.8-3.2-22.6-8-35.5-14.3
						c-10.3-5.4-18.1-9.4-23.6-11.9c15.9,20.1,25.3,46.2,28.3,78.4c16.7,5.1,33.7,8.3,51.1,9.4c15.9,1,30.3,0.4,43.3-1.8
						c6.8-1.2,17.5-11.6,32.1-31.2c14.9-20,26.8-40.2,35.6-60.6c1.6-5.5,2.9-10.1,3.7-14c1.9-9.2,2.9-21.4,2.9-36.5
						c0-9-0.6-18.2-1.8-27.6c-1.5-4.7-5.1-9.5-10.7-14.6c-5.6-5.1-10.8-7.6-15.6-7.5c-4.8,0.1-9.2,4-13.2,11.8
						c-2.4,4.8-4.4,9.3-5.9,13.5c-0.8,2.1-1.3,3.8-1.6,5.1c-0.8,4.2-1.3,7.7-1.3,10.3c-0.1,3.3,0,5.2,0.3,5.6
						c0.7-3.6,3-8.6,6.9-15.1c3.7-6,6.9-9.5,9.8-10.4c0.2-0.1,0.4-0.1,0.7-0.1c3-0.6,6.5-0.1,10.6,1.3c4.1,1.4,8.3,4.4,12.6,9.2
						c-4.3-4.8-8.5-7.8-12.6-9.2c-4.1-1.4-7.7-1.8-10.6-1.3c-0.2,0-0.5,0.1-0.7,0.1c-2.8,0.9-6.1,4.4-9.8,10.4
						c-4,6.5-6.3,11.6-6.9,15.1c-0.3,1.4-0.4,2.7-0.4,3.9c0,2.8,0.8,5.1,2.4,6.8c1.6,1.7,3.5,2,5.7,1c2.2-1,5.6-4.4,10.4-10.2
						c2.1-2.6,4.3-4.7,6.6-6.3c2-1.4,3-1.8,3-1.1c0,0.2-2.1,3.3-6.2,9.4c-4.5,6.6-7.4,11.3-8.7,14.1c-3.3,7.4-2.5,16.5,2.4,27.3
						c-4.9-10.9-5.6-20-2.4-27.3c1.3-2.8,4.2-7.5,8.7-14.1c4.2-6.1,6.3-9.2,6.2-9.4c0-0.6-1-0.3-3,1.1c-2.3,1.6-4.5,3.6-6.6,6.3
						c-4.8,5.8-8.2,9.2-10.4,10.2c-2.2,1-4.1,0.7-5.7-1c-1.6-1.7-2.4-4-2.4-6.8c0-1.2,0.1-2.5,0.4-3.9c-0.3-0.4-0.4-2.3-0.3-5.6
						c0-2.6,0.5-6.1,1.3-10.3c0.3-1.3,0.4-2,0.3-2c-0.4,0-0.8-0.6-1.1-1.7c-1.1-5.7-1.6-9.4-1.6-11c-0.4-0.3-0.8-0.9-1.2-1.7
						c-0.4-0.9-0.6-1.8-0.6-2.5c0-8.5,4.1-17.9,12.3-28.2c1.7-2.2,3.4-4.1,5.2-5.9c-0.1-3.2-1.3-6.3-3.6-9.1c-2.4-3-5-4.6-7.8-4.6
						C204.3-325.3,202.5-323.7,202-320.3z"/>
					<path class="st5" d="M-73.6-309.4c5.8-5.4,11.3-9.8,16.3-13.3c3.4-4.1,6.5-7.7,9.5-11c0-12.2-3.8-18.7-11.4-19.5
						c-3.9,5.5-7,11.9-9.3,19.2C-70.6-327.5-72.3-319.3-73.6-309.4 M-77.2-357.5c5.5-13.7,12.8-24.6,21.8-32.6
						c-9.9,0.1-19.1,0.8-27.6,2c-12.4,1.8-23.3,6.1-32.7,13c-9.2,6.8-17.9,16.6-25.9,29.6c-11.3,18.2-19.9,37.4-25.8,57.6
						c-5.8,19.8-8.8,40.1-9.1,60.8c-26.6,5.8-52.5,9-77.7,9.5c10.9,11.6,21.2,21.3,30.7,29.1c11.3,9.2,24.7,18.3,40.3,27.4
						c-0.6,1.3-1.2,2.6-1.8,3.8c-9.1,19.7-19.3,38.5-30.5,56.4c29.7-4.9,54.3-14,73.7-27.1c1.4-1.5,2.8-3.1,4.2-4.6
						c9.1-10,20.5-21.8,34.3-35.5c11.2-11.1,18-18.3,20.4-21.4c1.7-6.7,4.4-11.3,8.2-13.7c5.4-3.4,11.3-4.5,17.8-3.4
						c0.9,0.1,1.7,0.3,2.6,0.6c2.4-0.1,5.2-0.3,8.6-0.5c6.8-0.4,11.7-0.7,14.6-0.8c-0.8-2.4-1.5-4.5-2.1-6.3c-1-0.9-1.8-1.7-2.6-2.6
						c-4.4-4.8-8-9.5-10.7-13.9c-2.8-4.6-4.9-9.3-6.2-14.1c-0.9,0.3-2.1,0.4-3.7,0.5c-3.1,0.1-6.4-0.3-9.8-1.2
						c-4.7-1.3-8.7-3.8-12.2-7.4c-2.9-3.1-5.1-6.8-6.6-11c-2-5.7-2.9-11.2-2.6-16.7c0.2-3.9,1.1-6.9,2.8-9.1
						c-0.3-1.8-0.6-5.5-1.1-11.3c-0.4-5.4-0.5-12.9-0.1-22.3C-85.7-332.2-82.7-343.8-77.2-357.5 M-163.3-175.7
						c-0.9,1.4-1.7,2.7-2.6,4.1c-2.9,4.4-6.1,8.7-9.5,12.9c6.3,1.2,12.7,2,19.1,2.4c0.6,0,1.3,0.1,1.9,0.1c12.1,0.6,24.4-0.2,37-2.5
						c-12.6,2.3-24.9,3.1-37,2.5c-0.6,0-1.3-0.1-1.9-0.1c-6.4-0.4-12.8-1.2-19.1-2.4c3.4-4.1,6.6-8.4,9.5-12.9
						C-165.1-173-164.2-174.3-163.3-175.7c0.1-0.2,0.2-0.4,0.4-0.6c6-9.8,11-20.3,15-31.5c-4,11.2-9,21.7-15,31.5
						C-163.1-176.1-163.2-175.9-163.3-175.7 M-7.3-373.6c-2.6-5.7-6.3-10-11.1-12.9c-1.3,0.6-2.6,1.2-3.9,1.8
						c-4.6,2.3-8.9,4.9-12.7,7.6c-7.3,5.2-14.3,11.8-21.1,19.9c-1,1.2-2,2.5-2.9,3.9c7.6,0.8,11.4,7.3,11.4,19.5
						c7.9-8.6,14.4-14.3,19.5-17.1c5-2.7,10.7-4.9,17.3-6.6c1.8-0.4,3.6-0.8,5.5-1.1C-4.2-363-4.8-368-7.3-373.6 M72.8-212.4
						c-1.7,2.4-3.6,4.7-5.6,6.8c-7.9,8.6-17.2,14-27.7,16.3c4,0.7,8.6,2.2,13.8,4.4c1.1,0.5,2.4,1.1,3.8,1.8
						c5.5,2.6,13.4,6.6,23.6,11.9c12.9,6.4,24.7,11.1,35.5,14.3c1.1,0.3,2.3,0.6,3.4,0.9c8.2-5.9,16.2-12.2,23.8-19
						c-22.9-0.8-46.7-5.1-71.4-13.1C71.7-195.6,71.9-203.8,72.8-212.4 M88.4-307c0.9,0.1,2.5,0.2,4.8,0.2c3.6,0.1,7.1-0.1,10.5-0.4
						c10.8-1,18.9-3.6,24.3-7.9c7.6-5.9,12.2-13.7,13.8-23.4c1.2-7.1,0.9-12.6-0.8-16.6c-3.2,10.4-8.6,19.6-16.2,27.5
						c-3.8,3.9-9.1,7.5-16,10.9c-6.6,3.2-13.4,5.6-20.4,7.1L88.4-307 M121-349.3c0.2-11.4-3.4-21.3-10.9-29.4
						c3.6,10.7,2.5,21.8-3.3,33.2c-2.5,4.9-5.6,9.1-9.3,12.6c-3.8,3.5-7.6,5.8-11.5,6.9c1.1,4.7,1.9,10.2,2.4,16.4
						c0.2-0.1,2-0.9,5.5-2.5c4-2.1,7.7-4.4,11.1-7.1C115.5-327.7,120.8-337.7,121-349.3 M110.1-378.8c-1.5-1.6-3.2-3.2-5-4.7
						c-8.9-7.4-20.5-12.4-34.9-14.9c7.3,5.2,10.7,13.2,10.4,24.1c-0.3,10.7-4,19.1-11.2,25.1c3.9,1.7,7.2,3.5,10.1,5.5
						c2.7,6,4.6,11,5.7,14.9c0.2,0.9,0.5,1.8,0.7,2.8c3.9-1.1,7.8-3.4,11.5-6.9c3.7-3.5,6.8-7.7,9.3-12.6
						C112.7-357,113.8-368.1,110.1-378.8 M70.2-398.4c-3.4-0.6-7-1.1-10.7-1.4c-12.4-1.1-24-0.9-34.9,0.6
						c7.4,2.6,11.6,8.4,12.6,17.4c0.9,8.6-1.2,16.3-6.5,23.1c2.4,0.3,4.8,0.6,7.3,1c12.8,2.1,23.2,4.9,31.4,8.4
						c7.2-6,10.9-14.4,11.2-25.1C81-385.2,77.5-393.2,70.2-398.4 M24.6-399.2c-0.1,0-0.2,0-0.3,0c-12,1.7-24.3,5-36.8,10.1
						c-2.1,0.8-4.1,1.7-6,2.6c4.8,2.9,8.5,7.2,11.1,12.9c2.5,5.6,3.2,10.6,1.9,15c10.3-1.8,22.3-1.8,36.2,0
						c5.3-6.8,7.4-14.5,6.5-23.1C36.2-390.8,32-396.6,24.6-399.2z"/>
					<path class="st6" d="M74.8,32c1.1-8.1,2.3-16.4,3.8-25c0.4-2.5,0.8-4.9,1.1-7.3c-5.1,6.9-12.8,12.5-23,16.8
						c-10.8,4.6-22.4,6.8-34.8,6.5C7.9,22.7-5.3,19.3-17.9,12.8C-32.3,5.4-45-5.7-55.8-20.5c-1.9,5.1-3.8,10.1-5.9,15
						c-1.8,4.2-3.7,8.3-5.6,12.3c9.8,19.4,22.3,33.5,37.5,42.4c12.9,7.5,27.2,11,42.8,10.4c13.1-0.5,25.8-3.8,38.1-9.7
						C62.1,44.6,70,38.6,74.8,32z"/>
					<path class="st7" d="M57.5-259.7c-2.3-8.3-5.5-16.8-9.5-25.4c0,13.1-1.2,25-3.5,35.6c2.3-10.7,3.5-22.6,3.5-35.6L20.5-264
						c-20.3-8-39.3-18.6-57-32c-9,1.4-17.8,3.7-26.3,6.9c0.5,0.4,1,0.8,1.5,1.3c3.7,3.4,6.3,6.9,7.7,10.8c-1.5-3.8-4-7.4-7.7-10.8
						c-0.5-0.5-1-0.9-1.5-1.3c-3.6-2.8-7.3-4.3-11.1-4.4c-1.3-0.1-2.7,0-4.1,0.3c-3,0.6-5.3,2-6.8,4.2c-1.6,2.2-2.6,5.3-2.8,9.1
						c-0.3,5.5,0.6,11,2.6,16.7c1.5,4.3,3.7,7.9,6.6,11c3.4,3.7,7.5,6.2,12.2,7.4c3.4,0.9,6.7,1.3,9.8,1.2c1.6-0.1,2.8-0.2,3.7-0.5
						c1.4,4.8,3.5,9.5,6.2,14.1c2.7,4.4,6.3,9.1,10.7,13.9c0.8,0.8,1.6,1.7,2.6,2.6c2.2,2,4.9,4,8.1,6.2c3.2,2.1,6.9,4.4,11.2,6.8
						c11.9,6.6,22.9,10.6,32.9,11.9c1,0.1,2.1,0.3,3.1,0.4c6.1,0.5,11.8,0.2,17.2-1c10.5-2.3,19.8-7.7,27.7-16.3
						c2-2.1,3.8-4.4,5.6-6.8c8.6-12.1,14.5-28.2,17.8-48.2l0.4-2.8l-6.9,1.8C75.4-259.7,66.6-259.1,57.5-259.7 M3.9-258.6
						c3.6-0.4,7.1,2.2,10.7,7.8c4.5,7,8.1,11.8,10.9,14.4c3.5,3.2,7.4,4.8,11.6,4.8c0,0,2.6-0.2,7.6-0.5c0.3,0,0.7-0.1,1-0.1
						c5.7,0,8.5,1,8.4,3c-0.1,3.4-1.6,6.4-4.3,8.9c-3.5,3.2-8.5,4.8-14.9,4.8c-9.3,0-17.7-2.7-25-8.1c-8.7-6.4-12.7-14.9-12-25.5
						c0-0.1,0-0.2,0-0.3C-1.5-255.2,0.4-258.3,3.9-258.6 M-75.7-277.8c8.5,5,15,11.4,19.5,19.3C-60.7-266.4-67.2-272.8-75.7-277.8z"
						/>
					<path class="st8" d="M34.6-225c-7.5,0-14.7-2.2-21.6-6.6c-6.7-4.4-11.7-10.3-15-17.8c0,0.1,0,0.1,0,0.3
						c-0.7,10.6,3.3,19.1,12,25.5c7.3,5.4,15.7,8.1,25,8.1c6.5,0,11.4-1.6,14.9-4.8c2.7-2.5,4.2-5.5,4.3-8.9c0.1-2-2.8-3-8.4-3
						c-0.4,0-0.7,0.1-1,0.1c-2.1,2.7-3.5,4.5-4.2,5.2C39.3-225.7,37.3-225,34.6-225z"/>
					<path class="st9" d="M14.6-250.8c-3.6-5.6-7.1-8.2-10.7-7.8c-3.5,0.4-5.4,3.4-5.8,9.2c3.3,7.5,8.3,13.4,15,17.8
						c6.9,4.4,14.1,6.6,21.6,6.6c2.7,0,4.6-0.6,5.9-1.9c0.7-0.7,2.1-2.5,4.2-5.2c-5,0.3-7.6,0.5-7.6,0.5c-4.2,0-8.1-1.6-11.6-4.8
						C22.7-239.1,19.1-243.8,14.6-250.8z"/>
					<path d="M64.5-303.9c-1.8,0-3.5,1.6-5.1,4.9c-1.6,3.3-2.6,7.3-3,12c-0.5,4.7-0.3,8.6,0.6,12c0.9,3.3,2.2,4.9,4,4.9
						c1.8,0,3.5-1.6,5.1-4.9c1.6-3.3,2.6-7.3,3.2-12c0.4-4.7,0.2-8.6-0.7-12C67.6-302.2,66.3-303.9,64.5-303.9 M3.9-305.7
						c0.4-4.7,0.2-8.6-0.7-11.9s-2.2-4.9-4-4.9c-1.8,0-3.5,1.6-5.1,4.9s-2.6,7.3-3,11.9c-0.5,4.7-0.3,8.6,0.6,12
						c0.9,3.3,2.2,4.9,4,4.9c1.8,0,3.5-1.6,5.1-4.9C2.3-297.1,3.4-301.1,3.9-305.7z"/>
				</g>
			</g>
			<g>
				<path id="Levity_0_Layer0_0_1_STROKES" class="st10" d="M24.6-399.2c-0.1,0-0.2,0-0.3,0c-12,1.7-24.3,5-36.8,10.1
					c-2.1,0.8-4.1,1.7-6,2.6 M-5.4-358.6c10.3-1.8,22.3-1.8,36.2,0 M24.6-399.2c10.9-1.5,22.6-1.7,34.9-0.6
					c3.7,0.3,7.3,0.8,10.7,1.4c14.4,2.6,26,7.6,34.9,14.9c1.8,1.5,3.5,3.1,5,4.7c7.5,8.2,11.1,18,10.9,29.4
					c-0.2,11.6-5.6,21.6-16.1,30.1c-3.4,2.7-7.1,5.1-11.1,7.1c-3.5,1.6-5.3,2.4-5.5,2.5c7-1.5,13.8-3.9,20.4-7.1
					c6.9-3.3,12.2-6.9,16-10.9c7.6-7.9,13-17.1,16.2-27.5c1.8,4,2,9.5,0.8,16.6c-1.7,9.7-6.3,17.5-13.8,23.4
					c-5.4,4.2-13.5,6.9-24.3,7.9c-3.5,0.3-7,0.5-10.5,0.4c-2.3,0-3.8-0.1-4.8-0.2l0.1,2.3l2.6,2.1c3.9,3.2,7.5,6.7,10.7,10.4
					c-0.5,7.8-2.6,15.8-6.3,24l-1.9,4l-2.5,0.8l-0.4,2.8c-3.3,20.1-9.3,36.1-17.8,48.2c-0.9,8.6-1.1,16.8-0.7,24.5
					c24.7,8,48.5,12.4,71.4,13.1c-7.6,6.8-15.6,13.1-23.8,19c4.3,1.2,11.1,2.1,20.2,2.8c3.6,0.3,11.6,0.7,24.1,1.3
					c5.3-4.6,11.7-12.1,19.1-22.4c6.1-8.7,12.1-18,17.8-28c1.6-3.4-0.2-10.3-5.3-20.6c-2.8-5.5-4.9-9.5-6.1-11.9
					c-2.2-4.2-3.5-7.3-4-9.1c-0.5-1.9-0.3-7.1,0.7-15.6c0.9-7.7,1.6-12.8,2.3-15.1c6-16,9.3-24.9,9.9-26.8c0.5-1.5,1.4-4.4,2.5-8.6
					c0.4-1.4,0.6-3.2,0.8-5.4c0.2-2.8,0.3-4.5,0.4-4.9c0.5-3.4,2.3-5.1,5.4-5.1c2.8,0,5.4,1.5,7.8,4.6c2.3,2.8,3.5,5.9,3.6,9.1
					c1.6-1.6,3.6-3.3,5.9-5c2.3-1.8,5.1-2.3,8.4-1.6c3.3,0.7,5.6,3.4,6.9,8.2c1.3,4.8,3.1,12.4,5.3,22.9c0.8,1,1.6,2.4,2.6,4.1
					c0.9,1.7,1.6,3.3,2.1,4.8c0.4,1.5,0.9,3.5,1.4,5.9c0.5,2.4,0.8,3.9,0.9,4.4c0.1,0.5,0.2,0.8,0.2,1c1.2,9.4,1.8,18.6,1.8,27.6
					c0,15.2-1,27.4-2.9,36.5c-0.8,3.9-2.1,8.5-3.7,14c-8.8,20.4-20.7,40.6-35.6,60.6c-14.6,19.6-25.3,30-32.1,31.2
					c-13,2.3-27.4,2.9-43.3,1.8c-17.4-1.1-34.4-4.3-51.1-9.4c0.8,8.5,1.2,17.8,1.1,27.8c11.7,11.1,23.1,22.9,34.2,35.4
					c5.4,0.1,9.8,0.7,13.1,1.8c4.3,1.4,10.6,4.9,18.8,10.5c4.4,3,9.3,7.1,14.7,12.3c2.9,2.8,6.2,6.1,9.9,9.9c2,1.9,6,4.4,12,7.4
					c6,3,11.7,5.2,17,6.4c5.3,1.3,9.5,2.6,12.5,4.1s4.6,3.6,4.9,6.3c0.3,2.7-1.5,5.6-5.4,8.6c-3.9,3-10.1,4.3-18.6,3.9
					c-8.5-0.4-15.2-3.3-20-8.7c-2.1-2.7-3.8-4.6-4.9-5.6c-2-1.7-4.4-2.5-7.2-2.5c-3.1,0-5.2,0.9-6.3,2.7c-0.6,1-0.9,2.5-0.9,4.4
					c0,0.3,0.5,3.5,1.5,9.6c0.9,5.3,1.5,9.6,1.8,13.1c3.2,10.3,6,19.6,8.3,27.8c3.9,13.8,5.8,25.3,5.8,34.4c0,6.8-1.7,13-5,18.7
					c-3.4,5.8-7.1,8.7-11.4,8.7c-1.8,0-3.3-0.3-4.6-0.9c-0.3-0.1-0.5-0.3-0.8-0.4c-4.3,6-9.4,9.1-15.4,9.1c-8.3,0-12.4-2.7-12.4-8
					c0-4.5,1.3-9.1,4.1-13.9c-0.7,0.1-1.4,0.1-2.1,0.1c-3.4,0-6.2-1.1-8.4-3.4c-2.2-2.3-3.3-4.8-3.1-7.4c0.2-2.7,1.8-6.8,5-12.3
					c2.6-4.7,5.8-11.3,9.4-19.7C122.5,34.3,109.9,7,95.5-6.2c-4.3-4.1-8.7-8.2-13.3-12.1c-0.8,5.9-1.6,11.9-2.6,18.1
					c-0.4,2.4-0.7,4.8-1.1,7.3c-1.4,8.6-2.7,16.9-3.8,25c0.2,2-0.1,3.9-0.8,5.7c1.2,8.1,0.2,32.1-3.2,72c-0.5,5.4-0.9,10.5-1.2,15.3
					c0,0.1,0,0.2,0,0.3c-0.6,8-1.1,15.2-1.5,21.6c-1,17.2-0.9,28.3,0.1,33.1c-10.1,1.3-19.2,1.9-27.5,1.8c0.4,0.7,0.7,1.4,0.9,2.2
					c1,3,1.5,7.6,1.5,13.6c0,38.3-6.5,67.3-19.6,87c-5.4,8.2-11.8,14.4-19.1,18.5c-6.5,3.7-13.3,5.5-20.3,5.5c-8.9,0-14.8-2-17.7-6
					c-2.9-4-3.2-8.4-1-13c2.2-4.7,6.4-12.6,12.5-23.8c6.2-11.2,9.1-20.2,8.9-26.9c-3.3,0.5-5.5,0.8-6.5,1c-13.1,1.9-24.1-0.3-33-6.6
					c-3.8-2.7-6.8-5.9-8.8-9.5c-2-3.6-2.9-7.2-2.6-10.9c0.9-14.5,4.1-28.3,9.5-41.5c-13.3,1.1-25.8,0-37.5-3.2
					c-1.2,1.4-2.4,2.9-3.7,4.4c-2,2.4-8.9,10.1-20.6,23.1c-8.5,9.5-14.9,17.1-19.3,22.9c-19.2,25.2-32.5,46.4-39.8,63.8
					c-6.8,16.2-10.3,33.2-10.3,51.2c0,11.8,1.4,23.3,4.3,34.4c0.7,2.8,1.7,6.3,2.9,10.5c0.9,3.2,1.3,5.6,1.3,7.2
					c0,3.5-1.3,6.6-3.9,9.3c-3.5,3.7-8.7,5.6-15.6,5.6c-4.8,0-9.6-1.3-14.4-3.9c-5.1-2.7-9.7-6.6-13.8-11.6
					c-9.6-12-14.3-27.8-14.3-47.5c0-4.7,0.7-12.7,2.1-24.2c0.9-7.4,1.8-14.8,2.9-22.4c1.4-9.7,3.2-16.7,5.3-20.9c3-6.2,8-10.9,15-14
					c1.8-7.8,3.5-15.2,5.2-22.1c6.6-27.2,13.7-46.9,21.2-59.3c7.5-12.4,16.1-23.2,25.9-32.4c5.3-5,8.7-8.9,10.2-11.6
					c2-3.5,3.6-8.9,4.8-16.3c-4.2-5.7-7.4-11.8-9.5-18.3c7-8.6,13.8-16.7,20.5-24.3c5.1-5.7,10.1-11.1,15-16.2
					c3.4-3.5,6.7-6.9,10.1-10.1c18.8-18.3,33.4-31.2,43.6-38.6c1.9-4.1,3.8-8.2,5.6-12.3C-79.6-11.3-96.4-7.4-112.2,6
					c-41.2,10.6-78.2,4.1-111-19.5c22.2-40.4,49.4-78.5,81.4-114.3c-19.4,13.1-44,22.2-73.7,27.1c11.2-18,21.4-36.8,30.5-56.4
					c0.6-1.3,1.2-2.6,1.8-3.8c-15.6-9.1-29-18.2-40.3-27.4c-9.6-7.8-19.8-17.5-30.7-29.1c25.2-0.5,51.1-3.7,77.7-9.5
					c0.3-20.8,3.3-41,9.1-60.8c5.9-20.2,14.5-39.4,25.8-57.6c8.1-13,16.7-22.8,25.9-29.6c9.4-6.9,20.3-11.2,32.7-13
					c8.5-1.2,17.7-1.9,27.6-2c4.5-1.1,10.4-1,17.8,0.4c7.1,1.3,12.2,3,15.2,5.1c1.3-0.6,2.6-1.2,3.9-1.8 M232.1-248.7
					c0-0.6-1-0.3-3,1.1c-2.3,1.6-4.5,3.6-6.6,6.3c-4.8,5.8-8.2,9.2-10.4,10.2c-2.2,1-4.1,0.7-5.7-1c-1.6-1.7-2.4-4-2.4-6.8
					c0-1.2,0.1-2.5,0.4-3.9c-0.3-0.4-0.4-2.3-0.3-5.6c0-2.6,0.5-6.1,1.3-10.3c0.3-1.3,0.4-2,0.3-2c-0.4,0-0.8-0.6-1.1-1.7
					c-1.1-5.7-1.6-9.4-1.6-11c-0.4-0.3-0.8-0.9-1.2-1.7c-0.4-0.9-0.6-1.8-0.6-2.5c0-8.5,4.1-17.9,12.3-28.2c1.7-2.2,3.4-4.1,5.2-5.9
					 M245.4-287.3c-0.6-0.8-2.6-3.6-6.1-8.5s-6.6-7.5-9.1-7.8c-2.6-0.3-6.2,1.4-10.9,4.9c-4.7,3.5-7.8,6.3-9.4,8.3
					c-1.6,2-3.2,4.2-4.6,6.8c-1.4,2.5-2.1,5.9-2.1,10.2 M252.5-267.1c-1.5-4.7-5.1-9.5-10.7-14.6c-5.6-5.1-10.8-7.6-15.6-7.5
					c-4.8,0.1-9.2,4-13.2,11.8c-2.4,4.8-4.4,9.3-5.9,13.5c-0.8,2.1-1.3,3.8-1.6,5.1 M221.1-268.4c-2.8,0.9-6.1,4.4-9.8,10.4
					c-4,6.5-6.3,11.6-6.9,15.1 M69.4-349.2c3.9,1.7,7.2,3.5,10.1,5.5c2.7,6,4.6,11,5.7,14.9c0.2,0.9,0.5,1.8,0.7,2.8 M88.3-309.6
					l0.1,2.6 M-57.3-322.7c6.8-4.7,13.9-8.7,21.3-11.8c23.9-3.9,49.2-1.9,75.9,6c17.6,5.2,32.5,12.2,44.8,21l3.7,2.8 M85.9-326.1
					c1.1,4.7,1.9,10.2,2.4,16.4 M30.7-358.6c2.4,0.3,4.8,0.6,7.3,1c12.8,2.1,23.2,4.9,31.4,8.4 M3.9-305.7c0.4-4.7,0.2-8.6-0.7-11.9
					s-2.2-4.9-4-4.9c-1.8,0-3.5,1.6-5.1,4.9s-2.6,7.3-3,11.9c-0.5,4.7-0.3,8.6,0.6,12c0.9,3.3,2.2,4.9,4,4.9c1.8,0,3.5-1.6,5.1-4.9
					C2.3-297.1,3.4-301.1,3.9-305.7z M69.2-287c0.4-4.7,0.2-8.6-0.7-12c-0.9-3.3-2.2-4.9-4-4.9c-1.8,0-3.5,1.6-5.1,4.9
					c-1.6,3.3-2.6,7.3-3,12c-0.5,4.7-0.3,8.6,0.6,12c0.9,3.3,2.2,4.9,4,4.9c1.8,0,3.5-1.6,5.1-4.9C67.7-278.3,68.7-282.3,69.2-287z
					 M48-285.1c4,8.6,7.2,17.1,9.5,25.4c9,0.6,17.9,0,26.6-1.9l6.9-1.8 M44.7-232.2c-5,0.3-7.6,0.5-7.6,0.5c-4.2,0-8.1-1.6-11.6-4.8
					c-2.8-2.6-6.4-7.4-10.9-14.4c-3.6-5.6-7.1-8.2-10.7-7.8c-3.5,0.4-5.4,3.4-5.8,9.2c3.3,7.5,8.3,13.4,15,17.8
					c6.9,4.4,14.1,6.6,21.6,6.6c2.7,0,4.6-0.6,5.9-1.9C41.3-227.7,42.7-229.5,44.7-232.2c0.3,0,0.7-0.1,1-0.1c5.7,0,8.5,1,8.4,3
					c-0.1,3.4-1.6,6.4-4.3,8.9c-3.5,3.2-8.5,4.8-14.9,4.8c-9.3,0-17.7-2.7-25-8.1c-8.7-6.4-12.7-14.9-12-25.5c0-0.1,0-0.2,0-0.3
					 M39.5-189.2c10.5-2.3,19.8-7.7,27.7-16.3c2-2.1,3.8-4.4,5.6-6.8 M-36.4-296c17.7,13.4,36.7,24.1,57,32L48-285.1 M57.2-183
					c5.5,2.6,13.4,6.6,23.6,11.9c12.9,6.4,24.7,11.1,35.5,14.3c1.1,0.3,2.3,0.6,3.4,0.9 M57.2-183L57.2-183
					c0.2,19.6-1.9,34.6-6.5,45c-2.6,5.9-6.5,13-11.8,21.3c16.5,12,32.4,25.2,47.8,39.8 M39.5-189.2c4,0.7,8.6,2.2,13.8,4.4
					c1.1,0.5,2.4,1.1,3.8,1.8c15.9,20.1,25.3,46.2,28.3,78.4 M-33.1-213.5c2.2,2,4.9,4,8.1,6.2c3.2,2.1,6.9,4.4,11.2,6.8
					c11.9,6.6,22.9,10.6,32.9,11.9c1,0.1,2.1,0.3,3.1,0.4c6.1,0.5,11.8,0.2,17.2-1 M-54.2-205.9c5.3,1.3,10.3,4,15,8.1
					c5.3,4.6,15.7,15.1,31.1,31.5c16.5,17.7,29.4,32.2,38.7,43.7c2.7,1.9,5.5,3.8,8.2,5.8 M-82.7-162.1c0.1,0.3,0.2,0.6,0.3,0.8
					c4,13.1,14.1,27.7,30.5,43.8c18.1,17.7,42.2,35.7,72.3,53.9c22.2,13.4,42.8,28.4,61.8,45.1 M132.5,118.5
					c7.8-1,14.9-7.3,21.1-19.1c7.1-13.3,10.6-29.1,10.6-47.3c0-1.2,0-2.4-0.1-3.6c0-0.2-0.1-0.4-0.1-0.5c0-0.8-0.1-1.6-0.1-2.5
					c0-0.7-0.1-1.5-0.2-2.4 M156.3,131.4c0.1-0.2,0.3-0.4,0.4-0.6c1.8-2.8,3.5-6.1,5-10c4.3-11.1,6.4-24.1,6.4-38.8
					c0-6.9-0.5-13.8-1.6-20.7c-0.2-1.6-1-6-2.4-13.3 M74,37.7c-0.3,0.7-3.3,8.6-9.1,23.6c-4.1,10.6-7.4,19.5-9.9,26.8
					c-2.2,6.4-4,12.4-5.5,18c-0.3,1-0.6,2-0.8,3c-0.1,0.4-0.2,0.9-0.3,1.3c9.5,3,16.6,7.8,21.2,14.6 M-67.4,6.8
					c9.8,19.4,22.3,33.5,37.5,42.4c12.9,7.5,27.2,11,42.8,10.4c13.1-0.5,25.8-3.8,38.1-9.7C62.1,44.6,70,38.6,74.8,32 M-55.8-20.5
					C-45-5.7-32.3,5.4-17.9,12.8C-5.3,19.3,7.9,22.7,21.8,23c12.4,0.2,24-1.9,34.8-6.5c10.2-4.3,17.9-9.9,23-16.8 M44.9,127.8
					c-0.2,1.1-0.3,2.1-0.4,3.1c12.4,3.4,20.3,8.7,23.5,15.9 M44.5,130.9c-0.3,3-0.5,6.1-0.5,9.4c-4.4,0-10.6,0.9-18.7,2.7
					c-6.6,1.5-11,2.7-13.3,3.6c6.9,0.3,13.9,1.4,21.1,3.5c7,2,12.5,4.3,16.3,7c8.8,5.5,15,13.1,18.7,22.9 M48.4,110.4
					c-1.6,6.3-2.8,12.1-3.4,17.3C23,108.9-10.7,109-56.3,128.1c-4.5,4.9-8.9,9.8-13,14.8c-2.1,2.5-6.4,8.1-13.1,16.7
					c5.3-2.9,11.5-5.6,18.6-8.3c8.3-3.2,16.5-5.7,24.7-7.6c3.2-0.8,6.6-1.5,10-2.1c12.4-2.4,26.6-3.8,42.5-4.2
					c3.2-0.1,6.6,0,10.1,0.4c3.2,0.3,10.1,1.2,20.6,2.6 M12,146.6c0.2-5,0.7-8.1,1.4-9.3 M37.3,178.6c4.2-5.8,7.7-11.8,10.5-18
					c0.5-1.2,1.1-2.4,1.5-3.5 M40.6,181.8c-0.8-1.5-1.9-2.6-3.3-3.3 M-38.3,110c13.2-9.4,28.8-14.3,46.8-14.8c17.3-0.5,31,3.2,41,11
					 M-22.3-384.6c-4.6,2.3-8.9,4.9-12.7,7.6c-7.3,5.2-14.3,11.8-21.1,19.9c-1,1.2-2,2.5-2.9,3.9 M-47.8-333.7
					c7.9-8.6,14.4-14.3,19.5-17.1c5-2.7,10.7-4.9,17.3-6.6c1.8-0.4,3.6-0.8,5.5-1.1 M-84.8-289.1c-0.3-1.8-0.6-5.5-1.1-11.3
					c-0.4-5.4-0.5-12.9-0.1-22.3c0.4-9.5,3.3-21.1,8.8-34.8c5.5-13.7,12.8-24.6,21.8-32.6 M-57.3-322.7c-5.1,3.5-10.5,7.9-16.3,13.3
					c-0.7,0.6-1.4,1.2-2,1.9c-0.8,6.5-0.2,11.1,1.8,14c3.9,0.2,7.6,1.6,11.1,4.4c8.5-3.2,17.3-5.5,26.3-6.9
					c-1.9-13.1-1.7-26,0.5-38.5 M-59.2-353.2c-3.9,5.5-7,11.9-9.3,19.2c-2.1,6.5-3.8,14.7-5.1,24.6 M-57.3-322.7
					c3.4-4.1,6.5-7.7,9.5-11 M-84.8-289.1c-1.6,2.2-2.6,5.3-2.8,9.1c-0.3,5.5,0.6,11,2.6,16.7c1.5,4.3,3.7,7.9,6.6,11
					c3.4,3.7,7.5,6.2,12.2,7.4c3.4,0.9,6.7,1.3,9.8,1.2c1.6-0.1,2.8-0.2,3.7-0.5c1.4,4.8,3.5,9.5,6.2,14.1
					c2.7,4.4,6.3,9.1,10.7,13.9c0.8,0.8,1.6,1.7,2.6,2.6c0.6,1.7,1.3,3.8,2.1,6.3 M-73.9-293.5c-1.3-0.1-2.7,0-4.1,0.3
					c-3,0.6-5.3,2-6.8,4.2 M-54.2-205.9c2.4-0.1,5.2-0.3,8.6-0.5c6.8-0.4,11.7-0.7,14.6-0.8 M-54.2-205.9c-0.9-0.2-1.7-0.4-2.6-0.6
					c-6.5-1.1-12.5,0.1-17.8,3.4c-3.8,2.4-6.5,7-8.2,13.7c-0.3,1.1-0.6,2.2-0.8,3.5c-1.5,8.2-1.2,16.1,1,23.8
					c0.6,6.6,1.9,13.3,3.7,20.3c2,7.7,6.8,21,14.4,40c6.5,16.4,10.6,29.4,12.2,39.1c2.5,14.5,1.4,28.1-3.2,40.9
					c0,0.1-0.2,0.3-0.3,0.6c-0.1,0.3-0.2,0.5,0,0.6c-1.9,5.1-3.8,10.1-5.9,15 M-166-171.6c-2.9,4.4-6.1,8.7-9.5,12.9
					c6.3,1.2,12.7,2,19.1,2.4 M-82.9-189.3c-2.4,3.1-9.3,10.3-20.4,21.4c-13.8,13.7-25.2,25.5-34.3,35.5c-1.4,1.5-2.8,3.1-4.2,4.6
					 M-108.1,89.9c-1,0.8-2,1.6-3,2.5c17.7,21.7,36.9,32.5,57.6,32.6c4.8-5.1,9.8-10.1,15-15 M-121.1,55.6c0.1,15,4.4,26.4,13,34.3
					 M-122.3,102.4c0.2-0.2,0.5-0.4,0.7-0.6c3.4-3.2,7-6.3,10.6-9.3 M-126.3,106.2c1.3-1.3,2.6-2.6,4-3.8
					c-7.6-6.4-12.2-16.6-13.8-30.6 M-147.1,114.4c1.7,2.4,3.7,4.6,5.8,6.8c4.8-5.1,9.8-10.1,15-15c10.4,19.8,29.4,32,57,36.7
					 M-141.3,121.2c-1,1-2,2.1-2.9,3.2c-1.3,1.4-2.6,2.9-3.8,4.3c16,20.4,34.6,33.6,55.9,39.5 M-56.3,128.1c1-1,1.9-2.1,2.9-3.1
					 M-54,169.8c-0.2,0.5-0.5,1.1-0.7,1.6 M-39.1,143.6c-2.6,3.5-4.9,7.1-7,10.7c-3,5.1-5.6,10.2-7.9,15.5
					c-8.8-2.1-18.3-5.5-28.4-10.2"/>
			</g>
			<g>
				<g id="Levity_0_Layer0_0_STROKES_1_FILL">
					<path d="M139.7,46.2l-0.3,1.3c-0.1,0.8-0.3,2.1-0.6,3.7l-1.3,5.7c0,0.1-0.1,0.7-0.4,1.9l-0.8,3l-0.1,0.2l-0.1,0.5l-1.1,3.5
						l-0.1,0.2l-0.1,0.4l-3.4,8.3l3.7,1.6l3.6-9l0.1-0.2l0.1-0.2l1.9-6.4l1.4-9c0-0.1,0.1-0.7,0.1-2l0.1-0.5L142,38.7l-0.1-0.3v-0.4
						l-0.2-1.4v-0.3l-0.4-2.3l-0.2,0l-0.1,0.5l-0.2,1.8v0.3L139.7,46.2 M-18.4,218.6l3-0.5l10.2-2.8l7.1-3.1l6.8-3.8l0.1-0.1h0
						l0.1-0.1l0.2-0.1l7.6-5.3l0.2-0.1l0.1-0.1l4.4-3.7l9.9-10l1.6-1.9l0.4-0.4l2.5-3.2l0.3-0.3l0.1-0.2l0.1-0.1l0-0.1v-0.1l2.3-3
						l-3.2-2.4l-2.3,3l0,0.1l-0.1,0.1l-11.1,12.3l-7.6,6.9l-0.1,0.1l-6.9,5.4l-0.3,0.2l-0.2,0.2h0l-0.1,0.1l-3,2l-0.3,0.3l-7.7,4.6
						l-4.8,2.3l-0.3,0.1l-10.1,3.6l0,0.1L-18.4,218.6 M-216.2,255.7l-0.9,3.7l-0.1,0.8l-0.1,0.4l-0.3,2.4l-0.1,0.4v0.4l-0.3,2.1
						l-0.3,8l0.1,0l0.8-1.9l0.2-0.3l3-8.1l0.4-1.6l0.1-0.4l0.3-1.1l0.1-0.4l0.9-3.8L-216.2,255.7 M-92.6-58.9l-0.2,0L-103-34.9
						l-6.3,19.4c-0.3,0.8-0.5,1.8-0.8,2.8l-3.3,13.8l-0.1,0.4l-0.8,4l3.9,0.7l1.6-7.8l0.1-0.2l1-4.6c0.1-0.4,0.2-0.8,0.3-1.2
						l1.3-5.8l0.1-0.4l9.1-32.7L-92.6-58.9 M-117.4-158.6l-0.1-0.2l-7.2,0.4l-0.3,0.1l-9.2,0.3c-0.2,0-0.5,0.1-0.9,0.1l-19.3-0.3
						l-0.2-0.1l-1.6-0.1l-0.3,3.9l1.9,0.1l0.3,0.1l4.1,0.1l0.4,0.1l5.9-0.1c0.2,0,0.5-0.1,0.9-0.1c0.2,0,0.5-0.1,0.9-0.1l0.8-0.1
						c0.4,0,0.8,0,1,0l1.8-0.2l14.2-2.3L-117.4-158.6 M-31.8-203.8l1.4,2.4l0.1,0.2l1.7,2.4l0.1,0.1l0.1,0.2l0.7,0.7l0.1-0.1
						l-0.1-4.4l-0.6-3.3v-0.1l0-0.1l-0.7-1.9l-3.7,1.3l0.6,1.8l0.1,0.2v0.1l0.1,0.1l0.1,0.4L-31.8-203.8 M-73.6-277.3l-2-0.5
						l-0.2,0.1l0.3,0.3l0.4,0.5l0.7,0.7l0.1,0.1l7.2,7l0.3,0.2l3.1,3l0.2,0.3l1.1,1.1l0.3,0.2l1.8,1.8l0.4,0.3l0.2,0.2l1.8,1.8
						l0.3,0.3l0.1,0.2l0.1,0.1l1.4,1.3l0.1,0l-0.5-2.3l-1-2.5l-0.2-0.3l-0.1-0.3l-1.3-2.3l-0.2-0.3l-0.2-0.3l-4.6-5.2l-1.3-1.1
						l-0.1-0.1l-0.2-0.1l-0.5-0.4l-1.8-1.3l-0.3-0.2l-4.7-2.3l-0.4-0.1L-73.6-277.3 M-58-287.5l-0.2-0.1l-2.7-2.6l-0.4-0.3l-0.2-0.1
						l-2.5,3.1l0.1,0.1l0.3,0.3l0.5,0.5l0.3,0.3l1.6,1.5l0.4,0.5l3.1,3.1l0.2,0.3l0.5,0.4l0.1,0.1l3.2,3.5l0.1,0v-0.7l-0.1-0.8v-0.2
						l0-0.1l-0.3-1.4l-0.1-0.1v-0.1l-0.1-0.3l-0.2-0.3l-0.1-0.4l-0.2-0.3l-0.1-0.4l-0.6-1.4l-0.4-0.7l0-0.1l-1.6-2.3l-0.1-0.1
						l-0.1-0.1l-0.5-0.5L-58-287.5 M-53.4-352.7l-1-0.4l-0.3-0.1l-0.2-0.1c-0.7-0.2-1.3-0.2-1.8-0.3l-0.3-0.1h-0.2l-0.2,0.1H-58
						l-0.8,0.1l-0.3,0.1l0,0.1l0.3,0.1l0.3,0.2l1,0.5l0.1,0.1l0.3,0.1l0.6,0.4l0.1,0.1l0.1,0.1l0,0l0.3,0.2l0.1,0.1l0.1,0l1,1l0.1,0
						l0.1,0.1l0.1,0.1l0.2,0.2l0.2,0.2l0.3,0.3l0,0.1l0.1,0.1l0.1,0.1l0.1,0.1l0.1,0.2l0.1,0.1l0,0.1l0.3,0.4l0,0.1l0.1,0.1l0.1,0.2
						l0.2,0.2l1.3,2.8l0,0.1v0.1l0.4,1l0,0.3l0.1,0.3l0.4,1.1l0.1,0.4l0.2,0.5l0,0.3l0.3,0.7l0.1,0.5l1.4,4.5l0,0.3l0.1,0.2l0.1,0.4
						l0.2,0.3l0.1,0l0.3-0.6l0-0.2l0.1-0.3l0.5-2.3v-0.3l0.1-1.4l0-3.3L-47-344l-0.1-0.3l0-0.3l-0.6-1.8l-0.3-0.6l-0.1-0.3l-0.3-0.6
						l-0.2-0.3l-0.1-0.3l-0.4-0.6l-0.2-0.3c-0.1-0.1-0.1-0.2-0.2-0.3l-0.2-0.3l-0.1-0.1l-0.1-0.1l-0.5-0.5l-0.1-0.1l-0.1-0.1
						l-0.3-0.2l-0.1-0.1l-0.2-0.1l-0.3-0.3l-0.3-0.1l-0.3-0.2l-0.3-0.1l-0.3-0.2l-0.3-0.1l-0.1,0l-0.1-0.1L-53.4-352.7 M-18.3-386.5
						l-0.1,0.1l1.5,1.6l0.1,0.1l1.7,2.1l0.1,0.1l0.1,0.1l1.6,2.2l0.1,0.1l0.1,0.1l0.1,0.3l0.3,0.4l0.1,0.1l0.9,1.4l0.1,0.1l0.6,1.1
						l0.1,0.4l0.2,0.3l0,0.1l0.1,0.1l0.8,1.6l0.1,0.1v0l0,0l0.1,0.2l0.4,0.8l0,0l1.6,3.9l0.1,0.1l0.8,2.5l0,0.3l0.2,0.6l0.1,0.6
						l0.1,0.3l0.5,3.3v0.3l0.1,0.2v0.4l0,0.4v1l0.1,0.4l0.2,0.1l0.4-0.8l0.1-0.1l0.1-0.1l0.4-1.1l0.1-0.2l0.3-1.2l0.4-2.6l-0.1-3.1
						l-0.4-2.1v-0.1l-0.2-0.8l-1.3-3.6v0l-0.1-0.1v0l0,0l-0.4-0.9v0l-0.1-0.1l-1.4-2.5l-0.3-0.3l-0.1-0.2l-1-1.4l-0.2-0.1l-0.1-0.1
						l-0.2-0.2l-0.1-0.1l-1-1.1l-0.3-0.3l-0.1-0.1l-0.1-0.1l-0.5-0.5l-1.8-1.4l-0.1-0.1l-1.1-0.7l-0.5-0.3l-0.2-0.1l-0.2-0.1
						l-0.9-0.4L-18.3-386.5 M120.8-43.3h-0.3l-0.5,0H119l-0.4,0h-0.6l-0.2,0l-0.8,0.1l-1.7,0.5l-0.2,0l-1.6,0.8l-0.6,0.4l-0.1,0l0,0
						l-0.1,0l-0.8,0.6l0.1,0.1l0.8,0.4h0.1l0.1,0l2.5,0.6h0.2l0.8,0.1l0.2,0h0.6l0.4,0h0.2l0.2,0h0.4l0.2,0h0.2l0.3,0h0.8l0.4,0h0.3
						L120.8-43.3L120.8-43.3 M20.5-185.6l0.1-0.3l0.1-0.8v-0.1l0-0.1l0.3-1.1l-3.8-0.9l-0.3,1.1v0.1l0,0.1l-0.2,1l0,0.1v0.2
						l-0.1,0.8l-0.3,3.2l0.7,6.1l0.1,0.5v0.2l0.1,0.1l0,0.3l1.6,4.8l1.5,3.1l0.1-0.1l-0.1-0.9l-0.1-0.4l-0.5-5.3v-0.9l0-0.5
						L20.5-185.6 M48-300l0-0.1l-0.6-1.5l-0.2,0l-0.4,1.6v0.1l0,0.2l-0.6,4.6v0.4l-0.2,1.6v0.4l0,0.4v2.9l0,0.4l-0.3,17.8l0,0.4
						l-1.3,21.6l0.1,0.1l3.7-14.7l1.3-9.5l0.5-12.2l-0.4-8l-0.1-0.2v-0.2l-1.4-5.4L48-300 M73.9-335l-1.4-1.5
						c-0.5-0.5-1.1-0.9-1.8-1.4l-1-0.5l-0.2-0.1l-0.1,0l-1.4-0.5l-0.8-0.1H67l-0.3-0.1l-1.9,0.1l-0.5,0.1l-1.4,0.5l-1.9,0.9
						l-0.2,0.1l-0.7,0.5l-1.6,1.3l-2,2.2l-2,3.1l0.2,0.1l2.1-1.5l0.2-0.1l2.8-1.7l0.2-0.1l0.1-0.1l2.2-1l0.3-0.1l0.2-0.1l0.8-0.3
						l0.4,0l0.3-0.1l1.3-0.1l0.7,0h0.2l0.3,0.1h0.2l0.8,0.3l0.2,0.1l0.1,0l0.1,0.1l0.1,0l0.2,0.1l0.1,0l0.3,0.2
						c0.2,0.2,0.6,0.5,1.2,0.9l1.5,1.8l0.5,0.7l0.3,0.3l1.4,2.4c0.4,0.6,0.8,1.6,1.4,2.9l3.8,8.1l0.1,0l0.1-1l-0.1-0.4v-0.4
						l-0.7-5.9l-0.4-1.6c-0.3-1-0.6-2.1-1.1-3.3l-1.7-3.4L73.9-335 M4.7-349c-1.5,0.7-2.6,1.4-3.3,1.9c-0.5,0.3-1,0.6-1.4,0.9
						l-5.5,4.4l-1,1l0.2,0.1l13-5.3l0.2,0l0.2-0.1l5.4-1.4l0.5-0.1l0.1,0h0.3c1.1-0.2,2.3-0.2,3.5-0.1l0.4,0.1l0.4,0.1h0.2l1,0.3
						l0.1,0.1l0.4,0.1l0.2,0.1l0.1,0l0.4,0.2l0.1,0l0.9,0.5l0.1,0.1l0.1,0l0.9,0.7l0.3,0.3l0.3,0.3l0.1,0.1l0.1,0.1l0.1,0.1l0.1,0.1
						l0.6,0.7l0.3,0.5l0.3,0.3l0.2,0.3l0.1,0.3l0.4,0.6l2.2,4.3l0.3,0.5l0.1-0.1l-0.1-2.9l-0.6-2.5l-0.4-1.1l0-0.2l-0.1-0.2
						l-0.1-0.4l-0.9-1.8l-0.1-0.2l-0.1-0.2l-0.4-0.6c-0.4-0.5-0.9-1.1-1.4-1.6l-0.1,0l-0.3-0.3l-1.6-1.1l-0.3-0.1l-0.5-0.3l-1.9-0.7
						l-2.5-0.5l-1.1,0l-2.2,0.1l-0.3,0h-0.2l-0.1,0.1l-1.6,0.3l-3.1,0.9L4.7-349 M110-378.7l0.6,4.1v0.4l0,0.4l0.1,0.2v0.2l0.2,1.9
						l-0.2,6.6l0,0.4v0.3c-0.2,1.7-0.5,3.4-0.9,5l-0.3,1l-0.1,0.4l-0.5,1.9l-0.2,0.4l-0.5,1.6l-0.9,2.4l-0.2,0.3l-0.5,1.3l-0.1,0.4
						l-1,2.1l-0.1,0.1l-0.4,0.9v0l-1.2,2.3l-0.2,0.3l-0.2,0.3l-0.8,1.3l-0.1,0.2l-3.7,5.3l-2.8,3.3l-4.8,4.2l-0.6,0.3l-0.1,0.1
						l-0.1,0.1l-4.7,2.6l0,0.1l2.8-0.5l2.2-0.8l0.5-0.3l0.3-0.1l0.4-0.2l0.4-0.3l1-0.5l0.2-0.1l0.3-0.1l3.4-2.3
						c0.1-0.1,0.2-0.1,0.3-0.2l0.3-0.1l0.5-0.5c0.1-0.1,0.3-0.2,0.5-0.4l0.4-0.3l0.1-0.2l1-0.9l2.9-3.1c0.6-0.7,1.2-1.5,1.8-2.3
						l0.7-0.9l0.2-0.1l2.7-4.4l0-0.1v-0.1l0.1,0l0-0.1l0.5-0.9l0-0.1l0.2-0.4l2.3-5.8l1-3.6c0.3-1.7,0.5-2.7,0.6-2.9
						c0.3-1.9,0.4-3.8,0.4-5.6v-0.4l0-0.3l-0.1-2l-1-6l-1.2-3.5l-1.2-2.5L110-378.7 M230.1-248.9l0-0.3v-0.1l0.1-0.1v-0.1l-0.1,0.1
						l-6,8.9l-0.3,0.5l-3.3,4.9c-1.2,1.8-2.1,3.3-2.7,4.4l-1.8,3.3l-0.1,0.2l-0.3,0.5l-0.1,0.1l-0.1,0.1l-0.1,0.4l-0.1,0.1l-0.1,0.2
						c-0.7,1.8-1.2,3.6-1.4,5.4l-0.1,1.4v0.2l-0.1,0.1v0.7l-0.1,0.4l0.2,3.9l1.5,6.9l2.9,6.9l1.2,2.1l0.2-0.1l-2.1-7.5l-0.9-5.9
						l0-1.4c-0.1-0.8-0.1-1.5,0-2.3c0-1.6,0.2-3.2,0.6-4.8l0.7-2.3l0.1-0.3l0.6-1.7l0.2-0.3l0.1-0.2l0.2-0.4l0.1-0.1l0.1-0.2
						l0.2-0.3l0-0.1l0.1-0.1l0.4-0.8l7.8-12.1c0.7-1,1.1-1.6,1.1-1.7l4.6-6.9l0.1-0.1l0.1-0.2l0.1-0.2l0.1-0.1v0l0.1-0.3v-0.1
						l0.1-0.1l0.1-0.3v-0.2l0.1-0.1h-4V-248.9 M222.7-270.7l-1.3,0.2h-0.1l-0.2,0l-0.6,0.2l-0.1,0l1.3,3.8h0.1l0.1,0h0.2l0.4-0.1
						l0.8-0.1l0.3,0h1.6l2.3,0.3l0.1,0l0.1,0.1l0.3,0h0.1l0.1,0.1l1.4,0.3c0,0,0.2,0.1,0.6,0.1l0.6,0.1l0.1,0.1h0.1l0.1,0l0.3,0.1
						l0.3,0l0.1,0.1h0.1l1.3,0.4l0.1,0l1.3,0.5l0.3,0.1l2.2,1l5.7,3.6l0.1,0.1l0.2,0.1l2.1,1.5l0.2-0.1l-1-1.6l-0.4-0.6l-0.1-0.2
						l-0.2-0.1l-0.3-0.4l-3.2-3.6l-0.4-0.4l-3.2-2.4l-2.5-1.3l-0.8-0.3l-0.1,0H233l-0.1-0.1l-0.6-0.2h-0.1l-0.1-0.1l-2.3-0.7
						l-2.2-0.4c-0.5-0.1-1.2-0.2-2.2-0.3h-1.9l-0.4,0H222.7 M72.9-396.9l-2.6-1.5l-0.2,0.1l0.9,1l0.2,0.2l0.2,0.1l2.7,3.5l0,0.1
						l0.1,0.1l0.1,0.2l0.5,0.8l1.3,2.6c0.3,0.6,0.6,1.2,0.8,1.9c0.3,1,0.6,1.7,0.7,2.1l0.2,0.5l0,0.3l0.1,0.1v0.1l0.6,3.1v0.3
						l0.2,1.8v0.5l0,0.1l0,4.5l0,0.1v0.3c0,1.5-0.2,3.2-0.4,5l-1,5.3l-0.3,1.1l-0.1,0.3l-0.1,0.1l0,0.1c-0.1,0.3-0.3,1-0.8,2.1
						l-0.1,0.1l-2,4.4l-2,3.1l-0.2,0.3l-0.3,0.6l-0.4,0.4c-0.6,0.8-1,1.3-1.1,1.4l-0.4,0.5l0.2,0.1l1.2-0.8l0.2-0.1l0.2-0.1l2-1.6
						l2.5-2.5l1.9-2.5l1.7-3l0.1-0.3l0.1-0.2l1.9-4.9l0-0.4l0.1-0.3l0.7-3.3v-0.2l0-0.1l0.5-6.8l-0.1-0.4l-0.2-2.9l0-0.1v-0.4
						l-0.7-3.6l-0.2-0.6l-0.1-0.4l-1.3-3.5l-1.3-2.6l-1.9-2.6l-1.3-1.4l0-0.1l-1-0.9l-0.6-0.5l-0.3-0.3L72.9-396.9 M24.6-399.2
						l-0.1,0.1l1.7,1.1l0.1,0.1l0.1,0l1,0.8l0.1,0.1l0.4,0.3l1.4,1.3l1.6,1.8l0.1,0.2l0.2,0.1l1.7,3l0.5,1.1v0.1l0.4,1l0.1,0.2
						l0.4,1.2v0.1l0.8,3.8v0.3l0.1,0.1v0.1l0,0.5l0,0.1l0,0.9c0.2,1.4,0.2,2.8,0.2,4.2l-0.2,3l-0.1,0.5v0.3l0,0.3
						c0,0.1-0.1,0.8-0.3,1.9l-0.3,1.9l-0.1,0.2l-0.3,1.1l-0.8,2.4l-0.2,0.3l-0.1,0.4l-0.3,0.7l-0.1,0.4l-0.2,0.3l-0.1,0.4l-1.5,3.2
						l-0.1,0.3l-0.3,0.4l0.1,0.2l2.2-2.3l2.7-3.7l0.4-0.8c0-0.1,0.2-0.3,0.5-0.8l0.3-0.4l0.6-1.3l0.1-0.5l0.2-0.5l0.9-3.1l0.1-0.3
						l0.5-3.1v-0.3l0-0.3l0.1-1.2l-0.2-4.6l0-0.3v-0.2l0-0.1l-0.1-0.5v-0.1l0-0.1l-0.5-2.6l-0.6-1.9l0-0.1l-0.1-0.1
						c-0.2-0.7-0.5-1.4-0.9-2.1l-0.3-0.6l-0.1-0.1l-0.1-0.3l-1.4-2.1l-0.1-0.1l0-0.1l-0.5-0.6l-0.2-0.2l-0.2-0.2l-1-1.1l-1-0.8
						l-0.1-0.1l-0.9-0.6l-2.1-1.1l-0.2-0.1l-0.1,0l-0.3-0.1l-1.4-0.5h-0.1l-0.1-0.1l-1.5-0.4L24.6-399.2 M-4.5,234.9l-0.4,0.2H-5
						l-8.5,1.9l0.7,3.9l4.9-1.1l0.4-0.1l0.5-0.1l0.3-0.1l0.3-0.1l3.7-1.4l5.3-2.6l2.6-1.6l0.1-0.1l0.1-0.1l4.7-3.6l-0.1-0.1
						l-1.5,0.6L8,230.8l-7.4,2.6l-0.2,0.1c-0.3,0.1-0.4,0.1-0.5,0.2L-4.5,234.9 M-0.1,76.1l-19.1,14.3l-10.5,8.9
						c-0.7,0.6-3.1,2.8-7.2,6.6l-2.7,2.5l2.7,2.9l2.7-2.5c2.1-2,4.5-4.2,7.1-6.5l17.7-15.3l10.8-8.7c1.6-1.2,3.6-2.7,6.2-4.6
						c1.3-1,3.3-2.3,5.9-4l10.2-6.1c0.3-0.1,0.7-0.3,1.1-0.5l3.1-1.5l0.3-0.2l2.6-1.2l0-0.1l-8.6,3.3l-9.6,4.8
						c-1.7,1-3.8,2.2-6.3,3.7C4.6,73,2.5,74.4-0.1,76.1 M-58.5,54.2c0.1,0,0.3-0.2,0.7-0.5l0.6-0.4l-0.1-0.1l-26.9,16.2l-15.7,11.3
						l-9.4,7.7l2.5,3l11.2-9.1L-58.5,54.2 M-149.6-204.8l-0.3,0.4l-12.3,22.9l-0.3,0.4l-0.3,0.5l-1.9,3.2l-0.1,0.1l-0.3,0.5
						l-2.6,4.1l3.3,2.1l2.7-4.1l0.1-0.2l4.5-7.6l5.1-11.3l4.1-14.1l-0.2-0.1L-149.6-204.8 M38.5-115.4l-6.3-8.3l-3.1,2.6l3.1,3.8
						l0.3,0.3l0.3,0.4l3.1,3.4v0.1l10.4,10.9l0.2-0.2l-7.7-12.8l-0.1-0.1v0L38.5-115.4z"/>
				</g>
			</g>
		</g>
	</g>
</g>
<g id="Layer_2">
	<line class="st11" x1="394.8" y1="134.9" x2="396.8" y2="67.3"/>
	<line class="st11" x1="178.3" y1="134.9" x2="180.3" y2="67.3"/>
	<polyline class="st12" points="320,547 304.4,547 288.9,703 388.2,703 332.8,670 	"/>
	<polyline class="st12" points="207,547 220.6,547 235.2,702.4 172.4,720.5 204.3,667.9 	"/>
	<polygon class="st13" points="180.3,521 245.8,521 240,559 192.2,559 	"/>
	<polygon class="st13" points="279.6,521 345.1,521 339.3,559 291.5,559 	"/>
	<path class="st14" d="M416.3,514.6c0,8.1-56.7,14.8-151.2,14.8s-155.2-6.6-155.2-14.8c0-8.1,60.7-14.8,155.2-14.8
		S416.3,506.5,416.3,514.6z"/>
	<polygon class="st14" points="416.3,514 109.9,514 132.5,313 397.5,313 	"/>
	<ellipse class="st15" cx="265" cy="315.5" rx="132.5" ry="18.9"/>
	<path class="st13" d="M285.6,320.7c-9.4,4.2-30.1,5-41.7,0c-8-3.4,9.9-22.1,9.9-30.3s-9.9-33.4-9.9-33.4h41.7
		c0,0,9.9,25.3,9.9,33.4C295.5,314.2,293.5,317.1,285.6,320.7z"/>
	<path class="st14" d="M71.1,277.3c0,0,162.1,9.8,217.5,9.8c53.4,0,217.5-9.8,217.5-9.8l-7-155.6c0,0-158.5-10.5-212.8-10.5
		c-54.4,0-206.2,12.4-206.2,12.4L71.1,277.3z"/>
	<path class="st14" d="M269.7,256"/>
	<polygon class="st15" points="80,124.4 55.3,133.2 45.2,279 71.5,279 	"/>
	<path class="st14" d="M289.6,266.9l-8.6-0.3c0,0,9.3,17.2,9.2,23.2c-0.4,26.8-18.1,34.6-10.7,32.8c6.6-1.7,10.3-2.5,13.5-8.2
		c3.1-5.5,2.9-20,2.3-26.4C294.9,282.5,289.6,266.9,289.6,266.9z"/>
	<circle class="st16" cx="413.8" cy="170.8" r="70"/>
	<circle class="st16" cx="205.3" cy="170.8" r="70"/>
	<path class="st14" d="M329.1,56.3c0,0,34.6-0.4,66.1,10.8c30.5,10.8,59.4,33.7,59.4,33.7l4-11.2c0,0-24.9-21.5-59-33.6
		c-32.1-11.4-66.4-10.9-66.4-10.9L329.1,56.3z"/>
	<path class="st14" d="M120.5,100.6c0,0,26.7-22,58.2-33.1C209.2,56.8,246,56.5,246,56.5l-4-11.2c0,0-32.8-1.1-67,10.9
		c-32.2,11.3-58.5,33.2-58.5,33.2L120.5,100.6z"/>
	<circle class="st9" cx="408" cy="124.3" r="13.1"/>
	<circle class="st9" cx="195.5" cy="122.3" r="13.1"/>
	<path class="st15" d="M163.8,345.7l-15.3,156c0,0,74.1,6.8,118.3,6.8s116.1-7.2,116.1-7.2L371,345.7c0,0-78.4,2.6-104.3,2.6
		C240.7,348.3,163.8,345.7,163.8,345.7z"/>
	<ellipse class="st17" cx="177.5" cy="422.9" rx="12.8" ry="12.6"/>
	<ellipse class="st17" cx="367.8" cy="482.8" rx="6.4" ry="7.3"/>
	<ellipse class="st17" cx="361.8" cy="374" rx="6.4" ry="7.3"/>
	<path class="st17" d="M180.3,415.9c0,0-11-0.9-21.8,0.6c-10.5,1.4-21.3,5.3-21.3,5.3l-0.5-5.2c0,0,9.4-4.9,21.1-6.5
		c11.1-1.5,22,0.6,22,0.6L180.3,415.9z"/>
	<ellipse class="st15" cx="402" cy="365.3" rx="17.9" ry="34.3"/>
	<ellipse class="st15" cx="131.9" cy="365.9" rx="17.9" ry="34.3"/>
	<path class="st12" d="M103.7,530.9c0,0,2.5-34.2-1.8-46.4c-4.2-11.8-14.6-13-18.9-5.4c-4.2,7.6-6.9-7.6-6.9-7.6s12.9-5.7,20.7-1.5
		c24.7,13.2,15,23.5,17,65.4C114.2,542.5,103.7,530.9,103.7,530.9z"/>
	<path class="st12" d="M282.8,290.9c0,0,43.5,4.1,60.6,5.6c16.6,1.5,14.8-1,18.7-11.6c4.3-11.6,18,3.8,18,3.8s-8,3.8-16.4,9.7
		c-26.3,18.5-33.9,15.4-87.7-2.8C266.9,292.6,282.8,290.9,282.8,290.9z"/>
	<polygon class="st12" points="124.2,356.3 28.6,391 101.3,476.4 107.8,471.7 45.8,400.6 132.3,371.5 	"/>
	
		<ellipse transform="matrix(0.6508 -0.7593 0.7593 0.6508 -325.7636 250.271)" class="st15" cx="109.2" cy="479.3" rx="11.5" ry="11.5"/>
	<polygon class="st12" points="402,365.3 366.6,353.3 349.4,306.3 359.6,302.3 375.7,345.7 403.7,355.3 	"/>
	<path class="st15" d="M358.5,308.6c-5.2,3.6-12.4,2.3-16-2.9c-3.6-5.2-2.3-12.4,3-16c5.2-3.6,12.4-2.3,16,2.9
		C365,297.9,363.7,305,358.5,308.6z"/>
</g>
</svg>
