
<svg xmlns="http://www.w3.org/2000/svg" version="1.1" xmlns:xlink="http://www.w3.org/1999/xlink" preserveAspectRatio="none" x="0px" y="0px" width="68px" height="65px" viewBox="0 0 68 65">
<defs>
<g id="StarGraphic_0_Layer0_0_FILL">
<path fill="#404040" fill-opacity="0.4" stroke="none" d="
M 10.05 -11.05
L 4.75 -21.85
Q 3.8734375 -21.4322265625 3.2 -20.05
L -3.3 -6.95 -17.75 -4.85
Q -19.9 -4.5 -20.35 -3.2 -20.75 -1.9 -19.2 -0.4
L -8.75 9.8 -11.2 24.2
Q -11.37265625 25.1283203125 -11.25 25.8
L 0 19.9 14.8 27.65
Q 17 28.8 18.25 27.9 18.6408203125 27.6029296875 18.85 27.15 19.375 26.183984375 19.1 24.5
L 16.3 8.05 28.2 -3.6
Q 28.8361328125 -4.20078125 29.15 -4.8 29.8232421875 -5.8302734375 29.5 -6.8 29.05 -8.3 26.6 -8.65
L 10.1 -11.05 10.05 -11.05 Z"/>

<path fill="#404040" fill-opacity="0.5490196078431373" stroke="none" d="
M 2.7 -26
Q 1.6 -28.25 0 -28.25 -1.55 -28.25 -2.65 -26
L -10.05 -11.05 -26.55 -8.65
Q -29 -8.3 -29.5 -6.8 -29.95 -5.3 -28.2 -3.6
L -16.25 8.05 -19.05 24.5
Q -19.5 26.95 -18.2 27.9 -17.4421875 28.445703125 -16.35 28.25 -15.616015625 28.102734375 -14.75 27.65
L -11.25 25.8
Q -11.37265625 25.1283203125 -11.2 24.2
L -8.75 9.8 -19.2 -0.4
Q -20.75 -1.9 -20.35 -3.2 -19.9 -4.5 -17.75 -4.85
L -3.3 -6.95 3.2 -20.05
Q 3.8734375 -21.4322265625 4.75 -21.85
L 2.7 -26 Z"/>
</g>

<path id="StarGraphic_0_Layer0_0_1_STROKES" stroke="#000000" stroke-width="4" stroke-linejoin="round" stroke-linecap="round" fill="none" d="
M 4.75 -21.825
L 2.7 -26
Q 1.6 -28.25 0 -28.25 -1.55 -28.25 -2.65 -26
L -10.05 -11.05 -26.55 -8.65
Q -29 -8.3 -29.5 -6.8 -29.95 -5.3 -28.2 -3.6
L -16.25 8.05 -19.05 24.5
Q -19.5 26.95 -18.2 27.9 -17.4421875 28.445703125 -16.325 28.25 -15.616015625 28.102734375 -14.75 27.65
L -11.25 25.825
M 4.75 -21.825
L 10.05 -11.05 10.1 -11.05 26.6 -8.65
Q 29.05 -8.3 29.5 -6.8 29.8232421875 -5.8302734375 29.175 -4.775 28.8361328125 -4.20078125 28.2 -3.6
L 16.3 8.05 19.1 24.5
Q 19.375 26.183984375 18.875 27.15 18.6408203125 27.6029296875 18.25 27.9 17 28.8 14.8 27.65
L 0 19.9 -11.25 25.825"/>
</defs>

<g transform="matrix( 1.08892822265625, 0, 0, 1.08892822265625, 34.4,32.95) ">
<g transform="matrix( 1, 0, 0, 1, 0,0) ">
<use xlink:href="#StarGraphic_0_Layer0_0_FILL"/>

<use xlink:href="#StarGraphic_0_Layer0_0_1_STROKES"/>
</g>
</g>
</svg>
