
<svg xmlns="http://www.w3.org/2000/svg" version="1.1" xmlns:xlink="http://www.w3.org/1999/xlink" preserveAspectRatio="none" x="0px" y="0px" width="19px" height="46px" viewBox="0 0 19 46">
<defs>
<g id="Layer0_0_FILL">
<path fill="#FA85B1" fill-opacity="0.14901960784313725" stroke="none" d="
M 3.35 22.8
Q 3.35 22.9 3.35 23 3.4 25.6 5.3 27.5 7.25 29.45 10 29.45 12.75 29.45 14.7 27.5 16.6 25.6 16.65 23
L 16.65 22.65
Q 16.6 20 14.7 18.1 12.75 16.15 10 16.15 7.25 16.15 5.3 18.1 3.35 20.05 3.35 22.8 Z"/>
</g>

<g id="Layer0_1_FILL">
<path fill="#FA85B1" fill-opacity="0.14901960784313725" stroke="none" d="
M 28.8 29.65
Q 28.8 29.7505859375 28.8 29.85
L 35.45 29.85 35.45 23
Q 32.7 23 30.75 24.95 28.8 26.9 28.8 29.65
M 30.75 34.35
Q 32.7 36.3 35.45 36.3
L 35.45 29.85 28.8 29.85
Q 28.8712890625 32.4712890625 30.75 34.35
M 35.45 36.3
Q 38.2 36.3 40.15 34.35 42.030078125 32.469921875 42.1 29.85
L 35.45 29.85 35.45 36.3
M 42.1 29.85
L 42.1 29.45
Q 42.0390625 26.8390625 40.15 24.95 38.2 23 35.45 23
L 35.45 29.85 42.1 29.85 Z"/>
</g>

<g id="Layer0_2_FILL">
<path fill="#FA85B1" fill-opacity="0.14901960784313725" stroke="none" d="
M -4.7 -4.9
Q -6.65 -2.95 -6.65 -0.2 -6.65 -0.1 -6.65 0 -6.6 2.6 -4.7 4.5 -2.75 6.45 0 6.45 2.75 6.45 4.7 4.5 6.6 2.6 6.65 0
L 6.65 -0.35
Q 6.6 -3 4.7 -4.9 2.75 -6.85 0 -6.85 -2.75 -6.85 -4.7 -4.9 Z"/>
</g>

<g id="Layer0_3_FILL">
<path fill="#FA85B1" fill-opacity="0.14901960784313725" stroke="none" d="
M 6.65 46
L 6.65 45.65
Q 6.6 43 4.7 41.1 2.75 39.15 0 39.15 -2.75 39.15 -4.7 41.1 -6.65 43.05 -6.65 45.8 -6.65 45.9 -6.65 46 -6.6 48.6 -4.7 50.5 -2.75 52.45 0 52.45 2.75 52.45 4.7 50.5 6.6 48.6 6.65 46 Z"/>
</g>

<g id="Layer0_4_FILL">
<path fill="#FA85B1" fill-opacity="0.14901960784313725" stroke="none" d="
M 25.65 -0.35
Q 25.6 -3 23.7 -4.9 21.75 -6.85 19 -6.85 16.25 -6.85 14.3 -4.9 12.35 -2.95 12.35 -0.2 12.35 -0.1 12.35 0 12.4 2.6 14.3 4.5 16.25 6.45 19 6.45 21.75 6.45 23.7 4.5 25.6 2.6 25.65 0
L 25.65 -0.35 Z"/>
</g>

<g id="Layer0_5_FILL">
<path fill="#FA85B1" fill-opacity="0.14901960784313725" stroke="none" d="
M 25.65 46
L 25.65 45.65
Q 25.6 43 23.7 41.1 21.75 39.15 19 39.15 16.25 39.15 14.3 41.1 12.35 43.05 12.35 45.8 12.35 45.9 12.35 46 12.4 48.6 14.3 50.5 16.25 52.45 19 52.45 21.75 52.45 23.7 50.5 25.6 48.6 25.65 46 Z"/>
</g>

<path id="Layer0_1_1_STROKES" stroke="#000000" stroke-width="1" stroke-linejoin="round" stroke-linecap="round" fill="none" d="
M 42.1 29.85
L 35.45 29.85 35.45 36.3
M 28.8 29.85
L 35.45 29.85 35.45 23"/>
</defs>

<g transform="matrix( 1, 0, 0, 1, 0,0) ">
<use xlink:href="#Layer0_0_FILL"/>
</g>

<g transform="matrix( 1, 0, 0, 1, -44.45,-6.85) ">
<use xlink:href="#Layer0_1_FILL"/>

<use xlink:href="#Layer0_1_1_STROKES"/>
</g>

<g transform="matrix( 1, 0, 0, 1, 0,0) ">
<use xlink:href="#Layer0_2_FILL"/>
</g>

<g transform="matrix( 1, 0, 0, 1, 0,0) ">
<use xlink:href="#Layer0_3_FILL"/>
</g>

<g transform="matrix( 1, 0, 0, 1, 0,0) ">
<use xlink:href="#Layer0_4_FILL"/>
</g>

<g transform="matrix( 1, 0, 0, 1, 0,0) ">
<use xlink:href="#Layer0_5_FILL"/>
</g>
</svg>
