
<svg xmlns="http://www.w3.org/2000/svg" version="1.1" xmlns:xlink="http://www.w3.org/1999/xlink" preserveAspectRatio="none" x="0px" y="0px" width="511px" height="800px" viewBox="0 0 511 800">
<defs>
<g id="Levity_0_Layer0_0_FILL">
<path fill="#A96704" stroke="none" d="
M -54.05 169.8
Q -50.65 161.9 -46.15 154.3 -43 148.95 -39.15 143.65 -51.4 146.45 -63.85 151.25 -74.5 155.3 -82.45 159.6 -67.25 166.7 -54.05 169.8
M -121.65 101.8
Q -122 102.1 -122.35 102.4 -124.4 104.25 -126.35 106.2 -110.75 135.85 -69.3 142.9 -63.1 135.45 -56.3 128.15 -54.85 126.6 -53.4 125.05 -84.5 124.95 -111.05 92.45 -116.5 97.05 -121.65 101.8
M -111.05 92.45
Q -109.6 91.15 -108.1 89.95 -120.95 78.1 -121.1 55.6 -128.5 63.2 -136.1 71.8 -133.8 92.75 -122.35 102.4 -122 102.1 -121.65 101.8 -116.5 97.05 -111.05 92.45
M -64.5 -101.8
Q -75.9 -130.35 -78.95 -141.85 -81.75 -152.3 -82.7 -162.15 -85.9 -173.6 -83.65 -185.9 -83.35 -187.75 -82.9 -189.35 -86.55 -184.65 -103.35 -167.95 -124.05 -147.4 -137.65 -132.45 -139.75 -130.15 -141.8 -127.85 -189.9 -74.05 -223.25 -13.5 -174.1 21.85 -112.25 6 -106.35 -25.55 -92.75 -59 -106.35 -25.55 -112.25 6 -88.55 -14.15 -61.8 -5.55 -58.65 -12.95 -55.85 -20.55 -56 -20.75 -55.8 -21.15 -55.5 -21.55 -55.45 -21.75 -48.5 -41 -52.25 -62.7 -54.7 -77.2 -64.5 -101.8
M 49.4 157.1
Q 48.65 158.85 47.85 160.65 43.65 169.85 37.35 178.6 39.4 179.55 40.65 181.85 53.05 182 68.15 180.05 62.6 165.3 49.4 157.1
M 13.35 137.3
Q 12.3 139.2 12 146.65 15.5 145.2 25.35 143 37.45 140.25 44.05 140.3 28.25 138.15 23.45 137.7 18.2 137.15 13.35 137.3
M 44.95 127.8
Q 44.7 129.4 44.55 130.95 63.2 136 68.1 146.9 68.6 137.35 69.55 125.3 69.55 125.2 69.6 125.05 62.65 114.9 48.4 110.45 46 119.9 44.95 127.8
M 48.7 109.15
Q 49.05 107.7 49.5 106.2 34.45 94.5 8.45 95.2 -18.55 95.95 -38.35 110 -46.15 117.45 -53.4 125.05 -54.85 126.6 -56.3 128.15 12.1 99.4 44.95 127.8 46 119.9 48.4 110.45 48.55 109.8 48.7 109.15 Z"/>

<path fill="#F4A20D" stroke="none" d="
M -144.3 124.4
Q -146.25 126.55 -148.15 128.7 -124.2 159.35 -92.25 168.25 -74.7 173.1 -54.75 171.45 -54.4 170.6 -54.05 169.8 -67.25 166.7 -82.45 159.6 -72.4 146.65 -69.3 142.9 -110.75 135.85 -126.35 106.2 -134.15 113.55 -141.35 121.25 -142.85 122.8 -144.3 124.4
M -136.1 71.8
Q -146.2 83.15 -156.65 96.1 -153.4 105.9 -147.1 114.4 -144.5 117.95 -141.35 121.25 -134.15 113.55 -126.35 106.2 -124.4 104.25 -122.35 102.4 -133.8 92.75 -136.1 71.8
M -57.3 -322.75
Q -64.95 -317.5 -73.65 -309.4 -74.7 -308.5 -75.7 -307.55 -76.95 -297.85 -73.9 -293.55 -68.1 -293.3 -62.75 -289.1 -49.95 -293.95 -36.45 -296.05 -39.3 -315.75 -35.95 -334.55 -47.1 -329.85 -57.3 -322.75
M 44.55 130.95
Q 44.05 135.45 44.05 140.3 37.45 140.25 25.35 143 15.5 145.2 12 146.65 22.35 147.05 33.1 150.1 43.65 153.1 49.4 157.1 62.6 165.3 68.15 180.05 66.65 172.75 68.1 146.9 63.2 136 44.55 130.95
M 44.55 130.95
Q 44.7 129.4 44.95 127.8 12.1 99.4 -56.3 128.15 -63.1 135.45 -69.3 142.9 -72.4 146.65 -82.45 159.6 -74.5 155.3 -63.85 151.25 -51.4 146.45 -39.15 143.65 -34.3 142.5 -29.15 141.5 -10.5 137.9 13.35 137.3 18.2 137.15 23.45 137.7 28.25 138.15 44.05 140.3 44.05 135.45 44.55 130.95
M 64.9 61.35
Q 58.7 77.25 55 88.15 51.75 97.75 49.5 106.2 49.05 107.7 48.7 109.15 48.55 109.8 48.4 110.45 62.65 114.9 69.6 125.05 70.1 117.85 70.8 109.75 75.85 49.95 74 37.75 73.6 38.85 64.9 61.35
M 74 37.75
Q 75.05 35.05 74.8 32 67.55 41.95 51.1 49.9 32.65 58.85 12.95 59.65 -10.5 60.55 -29.85 49.25 -52.65 35.9 -67.4 6.8 -82.75 18 -111 45.45 -116.05 50.3 -121.1 55.6 -120.95 78.1 -108.1 89.95 -84.95 70.55 -57.3 53.25 -84.95 70.55 -108.1 89.95 -109.6 91.15 -111.05 92.45 -84.5 124.95 -53.4 125.05 -46.15 117.45 -38.35 110 -31.75 103.75 -24.75 97.65 8.8 68.35 31.05 60.25 8.8 68.35 -24.75 97.65 -31.75 103.75 -38.35 110 -18.55 95.95 8.45 95.2 34.45 94.5 49.5 106.2 51.75 97.75 55 88.15 58.7 77.25 64.9 61.35 73.6 38.85 74 37.75
M 57.2 -182.95
L 57.2 -183
Q 55 -184.05 53.35 -184.8 45.6 -188.2 39.55 -189.25 31.45 -187.5 22.3 -188.25 20.7 -188.4 19.15 -188.6 16.55 -179 20.45 -167.55 16.55 -179 19.15 -188.6 4.1 -190.6 -13.8 -200.55 -20.2 -204.1 -25 -207.3 -29.85 -210.55 -33.1 -213.5 -32.25 -210.9 -31 -207.25
L -27.75 -198.05 -31 -207.25
Q -35.45 -207.1 -45.65 -206.45 -50.7 -206.15 -54.25 -205.95 -46.35 -203.95 -39.2 -197.8 -31.2 -190.9 -8.1 -166.25 16.7 -139.75 30.65 -122.5 34.75 -119.65 38.85 -116.65 46.85 -129.1 50.7 -138 57.55 -153.6 57.2 -182.95
M 91.05 -302.65
L 88.5 -304.7 84.8 -307.45
Q 66.35 -320.75 40 -328.5 -0.05 -340.35 -35.95 -334.55 -39.3 -315.75 -36.45 -296.05 -9.9 -275.95 20.55 -264
L 48.05 -285.15
Q 48.1 -292.55 47.35 -301.65 48.1 -292.55 48.05 -285.15 54.05 -272.25 57.55 -259.75 71.1 -258.8 84.15 -261.65
L 91.1 -263.45 93.55 -264.25 95.5 -268.3
Q 101.1 -280.65 101.8 -292.3 96.9 -297.8 91.05 -302.65
M 3.2 -317.7
Q 4.55 -312.75 3.9 -305.75 3.1 -298.75 0.75 -293.8 -1.65 -288.85 -4.35 -288.85 -7 -288.85 -8.35 -293.8 -9.75 -298.75 -8.95 -305.75 -8.3 -312.75 -5.9 -317.7 -3.5 -322.65 -0.8 -322.65 1.85 -322.65 3.2 -317.7
M 59.45 -298.95
Q 61.85 -303.9 64.55 -303.9 67.2 -303.9 68.55 -298.95 69.9 -294 69.25 -287 68.45 -280 66.1 -275.05 63.7 -270.1 61 -270.1 58.35 -270.1 57 -275.05 55.6 -280 56.4 -287 57.05 -294 59.45 -298.95
M 85.95 -326.1
Q 85.6 -327.55 85.25 -328.85 83.55 -334.8 79.55 -343.8 75.25 -346.75 69.45 -349.25 57.2 -354.5 38.05 -357.6 34.3 -358.2 30.75 -358.65 9.95 -361.3 -5.45 -358.6 -8.3 -358.1 -10.95 -357.45 -20.8 -354.95 -28.25 -350.9 -36 -346.65 -47.8 -333.75 -52.25 -328.85 -57.3 -322.75 -47.1 -329.85 -35.95 -334.55 -0.05 -340.35 40 -328.5 66.35 -320.75 84.8 -307.45
L 88.5 -304.7 88.45 -307.05 88.35 -309.65
Q 87.6 -319.05 85.95 -326.1
M 54.6 -330.5
Q 71.75 -349.05 78.9 -317.5 71.75 -349.05 54.6 -330.5
M -6.6 -340.7
Q 22.95 -360.35 27.8 -336.95 22.95 -360.35 -6.6 -340.7 Z"/>

<path fill="#FECD52" stroke="none" d="
M -141.35 121.25
Q -144.5 117.95 -147.1 114.4 -148.85 125.5 -151.85 130.75 -154.15 134.85 -162.05 142.35 -176.7 156.25 -187.95 174.8 -199.25 193.35 -209.15 234.1 -211.65 244.5 -214.3 256.2 -216.25 264.75 -218.2 274 -216.25 264.75 -214.3 256.2 -224.85 261 -229.3 270.25 -232.4 276.55 -234.55 291.1 -236.15 302.4 -237.45 313.45 -239.5 330.65 -239.5 337.65 -239.5 367.15 -225.15 385.1 -219.1 392.65 -211.4 396.75 -204.15 400.6 -196.95 400.6 -186.6 400.6 -181.35 395.05 -177.5 390.95 -177.5 385.7 -177.5 383.35 -178.8 378.5 -180.65 372.15 -181.7 368 -185.95 351.35 -185.95 333.6 -185.95 306.65 -175.7 282.4 -164.65 256.35 -135.85 218.6 -129.2 209.9 -116.5 195.7 -98.95 176.2 -95.9 172.6 -94 170.35 -92.25 168.25 -124.2 159.35 -148.15 128.7 -146.25 126.55 -144.3 124.4 -142.85 122.8 -141.35 121.25
M -35.1 -377.05
Q -29.3 -381.15 -22.35 -384.65 -26.9 -387.9 -37.6 -389.8 -48.7 -391.75 -55.4 -390.15 -69.05 -378.1 -77.25 -357.5 -85.5 -336.95 -86.05 -322.75 -86.6 -308.55 -85.95 -300.4 -85.25 -291.75 -84.85 -289.1 -82.5 -292.45 -78 -293.3 -75.9 -293.65 -73.9 -293.55 -76.95 -297.85 -75.7 -307.55 -74.7 -308.5 -73.65 -309.4 -71.7 -324.3 -68.55 -334.05 -65.05 -345 -59.2 -353.25 -57.8 -355.25 -56.25 -357.1 -46 -369.3 -35.1 -377.05
M 12 146.65
Q 12.3 139.2 13.35 137.3 -10.5 137.9 -29.15 141.5 -34.3 142.5 -39.15 143.65 -43 148.95 -46.15 154.3 -50.65 161.9 -54.05 169.8 -54.4 170.6 -54.75 171.45 -62.95 191.25 -64.3 213 -64.65 218.5 -61.65 223.9 -58.6 229.4 -52.85 233.45 -39.45 242.8 -19.8 240 -18.2 239.75 -13.25 239 -9.35 238.35 -4.4 236.8 3.25 234.4 9.95 230.2 3.25 234.4 -4.4 236.8 -9.35 238.35 -13.25 239 -12.9 249.15 -22.15 265.95 -31.35 282.7 -34.7 289.75 -38.1 296.8 -33.75 302.8 -29.45 308.75 -16.05 308.75 -5.45 308.75 4.3 303.2 15.25 297 23.4 284.7 43.05 255.15 43.05 197.7 43.05 188.6 41.6 184.05 41.2 182.85 40.65 181.85 39.4 179.55 37.35 178.6 36.2 180.15 35 181.7 33.25 183.9 31.4 186.1 20.7 198.65 8 207.05 -5.7 216.05 -19.25 218.6 -5.7 216.05 8 207.05 20.7 198.65 31.4 186.1 33.25 183.9 35 181.7 36.2 180.15 37.35 178.6 43.65 169.85 47.85 160.65 48.65 158.85 49.4 157.1 43.65 153.1 33.1 150.1 22.35 147.05 12 146.65
M 163.95 43.05
Q 164.05 44.35 164.1 45.45 164.2 46.7 164.25 47.9 166.35 58.8 166.7 61.2 168.3 71.65 168.3 81.95 168.3 104.05 161.85 120.75 159.55 126.65 156.8 130.8 156.55 131.1 156.35 131.45 156.7 131.65 157.1 131.85 159 132.75 161.7 132.75 168 132.75 173.05 124 178.05 115.4 178.05 105.25 178.05 91.55 172.25 70.85 168.8 58.55 163.95 43.05
M 164.25 47.9
Q 164.25 48.15 164.3 48.45 164.35 50.35 164.35 52.1 164.35 79.5 153.7 99.45 144.3 117.1 132.55 118.55 128.5 125.8 128.5 132.5 128.5 140.5 140.95 140.5 149.95 140.5 156.35 131.45 156.55 131.1 156.8 130.8 159.55 126.65 161.85 120.75 168.3 104.05 168.3 81.95 168.3 71.65 166.7 61.2 166.35 58.8 164.25 47.9
M 79.7 -0.3
Q 81.15 -9.6 82.3 -18.4 53.8 -43.45 20.45 -63.55 -24.8 -90.9 -51.9 -117.45 -76.5 -141.6 -82.45 -161.3 -82.6 -161.75 -82.7 -162.15 -81.75 -152.3 -78.95 -141.85 -75.9 -130.35 -64.5 -101.8 -54.7 -77.2 -52.25 -62.7 -48.5 -41 -55.45 -21.75 -55.5 -21.55 -55.8 -21.15 -56 -20.75 -55.85 -20.55 -39.55 1.65 -17.95 12.85 0.95 22.6 21.85 23.05 40.45 23.4 56.7 16.5 72 10 79.7 -0.3
M 30.65 -122.5
Q 34 -118.35 37.3 -114.25 41.95 -108.25 46.4 -102.3 41.95 -108.25 37.3 -114.25 34 -118.35 30.65 -122.5 16.7 -139.75 -8.1 -166.25 -31.2 -190.9 -39.2 -197.8 -46.35 -203.95 -54.25 -205.95 -55.55 -206.3 -56.85 -206.5 -66.65 -208.15 -74.7 -203.05 -80.4 -199.45 -82.9 -189.35 -83.35 -187.75 -83.65 -185.9 -85.9 -173.6 -82.7 -162.15 -82.6 -161.75 -82.45 -161.3 -76.5 -141.6 -51.9 -117.45 -24.8 -90.9 20.45 -63.55 53.8 -43.45 82.3 -18.4 89.05 -12.45 95.55 -6.25 117.05 13.6 133.3 75.8 134.3 73.45 135.35 70.9 142.1 54.6 141.3 34.2 142.1 54.6 135.35 70.9 134.3 73.45 133.3 75.8 127.85 88.5 123.9 95.55 119.2 103.85 118.95 107.85 118.7 111.8 122.05 115.25 125.35 118.65 130.45 118.65 131.5 118.65 132.55 118.55 144.3 117.1 153.7 99.45 164.35 79.5 164.35 52.1 164.35 50.35 164.3 48.45 164.25 48.15 164.25 47.9 164.2 46.7 164.1 45.45 164.05 44.35 163.95 43.05 163.5 37.85 162.2 29.95 160.7 20.7 160.7 20.3 160.7 17.4 161.6 15.9 163.25 13.2 167.85 13.2 172.1 13.2 175.05 15.75 176.8 17.25 180 21.35 187.25 29.45 200 30.05 212.7 30.65 218.55 26.1 224.35 21.55 223.95 17.45 223.55 13.3 219.05 11.1 214.55 8.9 206.55 7 198.55 5.1 189.55 0.55 180.5 -4 177.55 -6.85 172 -12.6 167.65 -16.8 159.45 -24.65 152.9 -29.1 140.55 -37.5 134.05 -39.6 129.05 -41.2 120.9 -41.35 118.35 -41.4 112 -40.55 118.35 -41.4 120.9 -41.35 104.2 -60.2 86.65 -76.8 63.55 -98.7 38.85 -116.65 34.75 -119.65 30.65 -122.5
M 57.2 -183
L 57.2 -182.95
Q 57.55 -153.6 50.7 -138 46.85 -129.1 38.85 -116.65 63.55 -98.7 86.65 -76.8 86.75 -91.8 85.55 -104.6 81 -152.85 57.2 -183
M 230.1 -303.55
Q 226.2 -303.95 219.2 -298.65 212.2 -293.35 209.8 -290.35 207.35 -287.4 205.2 -283.6 203.05 -279.8 203.05 -273.4 203.05 -271 204.7 -262.4 205.2 -260.7 205.8 -260.7 205.9 -260.7 205.5 -258.75 206 -260.65 207.15 -263.85 209.45 -270.15 213.05 -277.4 219.1 -289.1 226.25 -289.2 233.4 -289.35 241.85 -281.7 250.25 -274.1 252.55 -267.1 252.5 -267.4 252.35 -268.1 252.15 -268.8 251.45 -272.45 250.7 -276.1 250.05 -278.35 249.4 -280.6 248 -283.15 246.55 -285.75 245.4 -287.3 244.55 -288.45 239.25 -295.8 233.95 -303.15 230.1 -303.55
M 218.75 -311.7
Q 216.1 -309.05 213.55 -305.8 201.3 -290.4 201.3 -277.6 201.3 -276.5 201.9 -275.1 202.45 -273.85 203.05 -273.4 203.05 -279.8 205.2 -283.6 207.35 -287.4 209.8 -290.35 212.2 -293.35 219.2 -298.65 226.2 -303.95 230.1 -303.55 233.95 -303.15 239.25 -295.8 244.55 -288.45 245.4 -287.3 242.05 -303 240.05 -310.15 238 -317.3 233.1 -318.35 228.15 -319.4 224.65 -316.75 221.15 -314.15 218.75 -311.7
M 202 -320.3
Q 201.9 -319.6 201.65 -315.35 201.45 -312 200.9 -309.95 199.2 -303.6 198.4 -301.35 197.4 -298.6 188.45 -274.6 187.5 -271.05 186.2 -259.45 184.75 -246.65 185.5 -243.85 186.25 -241.15 189.5 -234.8 191.4 -231.15 195.65 -222.9 203.35 -207.35 200.95 -202.25 192.3 -187.2 183.1 -174.2 172.05 -158.65 164.05 -151.75 145.3 -152.6 139.95 -153 126.25 -154 119.75 -155.75 118.05 -156.2 116.35 -156.7 100.15 -161.5 80.85 -171.05 65.45 -179.15 57.2 -183 81 -152.85 85.55 -104.6 110.6 -96.9 136.7 -95.2 160.5 -93.65 180 -97.05 190.2 -98.8 212.1 -128.25 234.45 -158.25 247.7 -188.9 250.15 -197.1 251.4 -202.9 254.3 -216.65 254.3 -239.45 254.3 -253 252.55 -267.1 250.25 -274.1 241.85 -281.7 233.4 -289.35 226.25 -289.2 219.1 -289.1 213.05 -277.4 209.45 -270.15 207.15 -263.85 206 -260.65 205.5 -258.75 204.25 -252.4 204.2 -248.45 204.05 -243.5 204.45 -242.85 205.45 -248.2 211.4 -258 216.9 -267.05 221.15 -268.4 221.45 -268.5 221.8 -268.55 226.25 -269.4 232.45 -267.3 238.6 -265.25 245.05 -258.1 238.6 -265.25 232.45 -267.3 226.25 -269.4 221.8 -268.55 221.45 -268.5 221.15 -268.4 216.9 -267.05 211.4 -258 205.45 -248.2 204.45 -242.85 204.05 -240.8 204.05 -238.95 204.05 -234.75 206.45 -232.15 208.8 -229.6 212.1 -231.1 215.35 -232.6 222.5 -241.3 225.7 -245.2 229.1 -247.55 232.15 -249.65 232.1 -248.7 232.1 -248.4 225.85 -239.3 219.1 -229.4 217.2 -225.15 212.25 -214.1 219.55 -197.8 212.25 -214.1 217.2 -225.15 219.1 -229.4 225.85 -239.3 232.1 -248.4 232.1 -248.7 232.15 -249.65 229.1 -247.55 225.7 -245.2 222.5 -241.3 215.35 -232.6 212.1 -231.1 208.8 -229.6 206.45 -232.15 204.05 -234.75 204.05 -238.95 204.05 -240.8 204.45 -242.85 204.05 -243.5 204.2 -248.45 204.25 -252.4 205.5 -258.75 205.9 -260.7 205.8 -260.7 205.2 -260.7 204.7 -262.4 203.05 -271 203.05 -273.4 202.45 -273.85 201.9 -275.1 201.3 -276.5 201.3 -277.6 201.3 -290.4 213.55 -305.8 216.1 -309.05 218.75 -311.7 218.55 -316.55 215.15 -320.8 211.55 -325.35 207.4 -325.35 202.75 -325.35 202 -320.3 Z"/>

<path fill="#614324" stroke="none" d="
M -73.65 -309.4
Q -64.95 -317.5 -57.3 -322.75 -52.25 -328.85 -47.8 -333.75 -47.85 -352 -59.2 -353.25 -65.05 -345 -68.55 -334.05 -71.7 -324.3 -73.65 -309.4
M -77.25 -357.5
Q -69.05 -378.1 -55.4 -390.15 -70.25 -389.95 -83 -388.1 -101.65 -385.4 -115.7 -375.1 -129.55 -364.95 -141.65 -345.5 -158.65 -318.15 -167.45 -287.9 -176.15 -258.2 -176.55 -227.05 -216.5 -218.35 -254.3 -217.55 -237.9 -200.1 -223.55 -188.45 -206.65 -174.7 -183.25 -161.05 -184.1 -159.15 -185 -157.2 -198.65 -127.7 -215.5 -100.75 -170.95 -108.15 -141.8 -127.85 -139.75 -130.15 -137.65 -132.45 -124.05 -147.4 -103.35 -167.95 -86.55 -184.65 -82.9 -189.35 -80.4 -199.45 -74.7 -203.05 -66.65 -208.15 -56.85 -206.5 -55.55 -206.3 -54.25 -205.95 -50.7 -206.15 -45.65 -206.45 -35.45 -207.1 -31 -207.25 -32.25 -210.9 -33.1 -213.5 -34.55 -214.8 -35.7 -216.05 -42.35 -223.3 -46.45 -229.95 -50.65 -236.85 -52.7 -244.05 -54 -243.65 -56.4 -243.55 -61.1 -243.35 -66.25 -244.75 -73.25 -246.65 -78.4 -252.2 -82.75 -256.85 -85 -263.25 -88.05 -271.75 -87.6 -279.95 -87.3 -285.8 -84.85 -289.1 -85.25 -291.75 -85.95 -300.4 -86.6 -308.55 -86.05 -322.75 -85.5 -336.95 -77.25 -357.5
M -163.35 -175.7
Q -164.65 -173.65 -166 -171.6 -170.4 -164.95 -175.5 -158.75 -166.05 -156.95 -156.4 -156.35 -155.45 -156.3 -154.5 -156.25 -136.4 -155.35 -117.5 -158.75 -136.4 -155.35 -154.5 -156.25 -155.45 -156.3 -156.4 -156.35 -166.05 -156.95 -175.5 -158.75 -170.4 -164.95 -166 -171.6 -164.65 -173.65 -163.35 -175.7 -163.2 -176 -163 -176.3 -153.95 -191 -148 -207.8 -153.95 -191 -163 -176.3 -163.2 -176 -163.35 -175.7
M -7.35 -373.6
Q -11.25 -382.1 -18.45 -386.5 -20.45 -385.6 -22.35 -384.65 -29.3 -381.15 -35.1 -377.05 -46 -369.3 -56.25 -357.1 -57.8 -355.25 -59.2 -353.25 -47.85 -352 -47.8 -333.75 -36 -346.65 -28.25 -350.9 -20.8 -354.95 -10.95 -357.45 -8.3 -358.1 -5.45 -358.6 -3.55 -365.25 -7.35 -373.6
M 72.8 -212.45
Q 70.2 -208.8 67.25 -205.6 55.35 -192.7 39.55 -189.25 45.6 -188.2 53.35 -184.8 55 -184.05 57.2 -183 65.45 -179.15 80.85 -171.05 100.15 -161.5 116.35 -156.7 118.05 -156.2 119.75 -155.75 132.1 -164.6 143.55 -174.8 109.15 -175.95 72.1 -187.95 71.5 -199.5 72.8 -212.45
M 88.45 -307.05
Q 89.8 -306.9 93.2 -306.85 98.55 -306.75 103.75 -307.25 119.95 -308.75 128.05 -315.1 139.4 -324 141.9 -338.5 143.7 -349.1 141.05 -355.1 136.25 -339.45 124.8 -327.6 119.1 -321.75 108.8 -316.75 98.9 -311.9 88.35 -309.65
L 88.45 -307.05
M 121.05 -349.35
Q 121.4 -366.5 110.15 -378.8 115.6 -362.75 106.85 -345.6 103.05 -338.2 97.5 -332.95 91.85 -327.7 85.95 -326.1 87.6 -319.05 88.35 -309.65 88.6 -309.75 93.8 -312.1 99.85 -315.2 104.9 -319.25 120.75 -331.95 121.05 -349.35
M 110.15 -378.8
Q 107.9 -381.25 105.2 -383.5 91.85 -394.6 70.25 -398.45 81.15 -390.65 80.65 -374.35 80.2 -358.3 69.45 -349.25 75.25 -346.75 79.55 -343.8 83.55 -334.8 85.25 -328.85 85.6 -327.55 85.95 -326.1 91.85 -327.7 97.5 -332.95 103.05 -338.2 106.85 -345.6 115.6 -362.75 110.15 -378.8
M 70.25 -398.45
Q 65.15 -399.35 59.55 -399.85 41 -401.5 24.6 -399.2 35.75 -395.35 37.25 -381.75 38.65 -368.85 30.75 -358.65 34.3 -358.2 38.05 -357.6 57.2 -354.5 69.45 -349.25 80.2 -358.3 80.65 -374.35 81.15 -390.65 70.25 -398.45
M 24.6 -399.2
Q 24.5 -399.2 24.35 -399.2 6.35 -396.7 -12.45 -389.1 -15.55 -387.85 -18.45 -386.5 -11.25 -382.1 -7.35 -373.6 -3.55 -365.25 -5.45 -358.6 9.95 -361.3 30.75 -358.65 38.65 -368.85 37.25 -381.75 35.75 -395.35 24.6 -399.2 Z"/>

<path fill="#3781E4" stroke="none" d="
M 74.8 32
Q 76.45 19.85 78.55 7 79.15 3.3 79.7 -0.3 72 10 56.7 16.5 40.45 23.4 21.85 23.05 0.95 22.6 -17.95 12.85 -39.55 1.65 -55.85 -20.55 -58.65 -12.95 -61.8 -5.55 -64.5 0.7 -67.4 6.8 -52.65 35.9 -29.85 49.25 -10.5 60.55 12.95 59.65 32.65 58.85 51.1 49.9 67.55 41.95 74.8 32 Z"/>

<path fill="#F5D892" stroke="none" d="
M 57.55 -259.75
Q 54.05 -272.25 48.05 -285.15 48 -265.55 44.5 -249.5 48 -265.55 48.05 -285.15
L 20.55 -264
Q -9.9 -275.95 -36.45 -296.05 -49.95 -293.95 -62.75 -289.1 -62 -288.5 -61.25 -287.8 -55.7 -282.75 -53.5 -277.05 -55.7 -282.75 -61.25 -287.8 -62 -288.5 -62.75 -289.1 -68.1 -293.3 -73.9 -293.55 -75.9 -293.65 -78 -293.3 -82.5 -292.45 -84.85 -289.1 -87.3 -285.8 -87.6 -279.95 -88.05 -271.75 -85 -263.25 -82.75 -256.85 -78.4 -252.2 -73.25 -246.65 -66.25 -244.75 -61.1 -243.35 -56.4 -243.55 -54 -243.65 -52.7 -244.05 -50.65 -236.85 -46.45 -229.95 -42.35 -223.3 -35.7 -216.05 -34.55 -214.8 -33.1 -213.5 -29.85 -210.55 -25 -207.3 -20.2 -204.1 -13.8 -200.55 4.1 -190.6 19.15 -188.6 20.7 -188.4 22.3 -188.25 31.45 -187.5 39.55 -189.25 55.35 -192.7 67.25 -205.6 70.2 -208.8 72.8 -212.45 85.7 -230.6 90.65 -260.7
L 91.1 -263.45 84.15 -261.65
Q 71.1 -258.8 57.55 -259.75
M 3.9 -258.65
Q 9.25 -259.2 14.6 -250.85 21.35 -240.35 25.55 -236.5 30.8 -231.7 37.15 -231.7 37.2 -231.7 44.75 -232.2 45.25 -232.25 45.8 -232.3 54.35 -232.25 54.25 -229.3 54.05 -224.15 49.95 -220.35 44.7 -215.55 35 -215.55 21 -215.55 10 -223.7 -3.05 -233.35 -2 -249.2 -2 -249.35 -1.95 -249.45 -1.3 -258.1 3.9 -258.65
M -75.75 -277.8
Q -62.95 -270.35 -56.25 -258.5 -62.95 -270.35 -75.75 -277.8 Z"/>

<path fill="#8D3552" stroke="none" d="
M 34.65 -225.05
Q 23.35 -225.05 13.05 -231.7 2.95 -238.25 -1.95 -249.45 -2 -249.35 -2 -249.2 -3.05 -233.35 10 -223.7 21 -215.55 35 -215.55 44.7 -215.55 49.95 -220.35 54.05 -224.15 54.25 -229.3 54.35 -232.25 45.8 -232.3 45.25 -232.25 44.75 -232.2 41.65 -228.1 40.55 -227 38.65 -225.05 34.65 -225.05 Z"/>

<path fill="#FFFFFF" stroke="none" d="
M 14.6 -250.85
Q 9.25 -259.2 3.9 -258.65 -1.3 -258.1 -1.95 -249.45 2.95 -238.25 13.05 -231.7 23.35 -225.05 34.65 -225.05 38.65 -225.05 40.55 -227 41.65 -228.1 44.75 -232.2 37.2 -231.7 37.15 -231.7 30.8 -231.7 25.55 -236.5 21.35 -240.35 14.6 -250.85 Z"/>

<path fill="#000000" stroke="none" d="
M 64.55 -303.9
Q 61.85 -303.9 59.45 -298.95 57.05 -294 56.4 -287 55.6 -280 57 -275.05 58.35 -270.1 61 -270.1 63.7 -270.1 66.1 -275.05 68.45 -280 69.25 -287 69.9 -294 68.55 -298.95 67.2 -303.9 64.55 -303.9
M 3.9 -305.75
Q 4.55 -312.75 3.2 -317.7 1.85 -322.65 -0.8 -322.65 -3.5 -322.65 -5.9 -317.7 -8.3 -312.75 -8.95 -305.75 -9.75 -298.75 -8.35 -293.8 -7 -288.85 -4.35 -288.85 -1.65 -288.85 0.75 -293.8 3.1 -298.75 3.9 -305.75 Z"/>
</g>

<g id="Levity_0_Layer0_0_STROKES_1_FILL">
<path fill="#000000" stroke="none" d="
M 139.75 46.2
L 139.5 47.55
Q 139.35 48.8 138.85 51.3
L 137.55 57.05
Q 137.55 57.2 137.1 58.9
L 136.3 61.9 136.2 62.1 136.1 62.55 135 66.1 134.9 66.3 134.8 66.7 131.45 75 135.1 76.55 138.7 67.6 138.75 67.4 138.85 67.2 140.75 60.8 142.1 51.75
Q 142.1 51.65 142.25 49.75
L 142.3 49.3 142 38.75 141.95 38.45 141.95 38.1 141.75 36.7 141.75 36.45 141.35 34.15 141.2 34.2 141.1 34.65 140.95 36.5 140.95 36.75 139.75 46.2
M -18.4 218.6
L -15.4 218.15 -5.15 215.35 2 212.25 8.8 208.5 8.85 208.45 8.9 208.45 8.95 208.4 9.15 208.3 16.75 203 16.95 202.9 17.1 202.75 21.55 199.05 31.5 189 33.1 187.1 33.5 186.7 36.05 183.5 36.35 183.2 36.45 183 36.55 182.95 36.6 182.85 36.6 182.8 38.9 179.8 35.75 177.35 33.45 180.4 33.4 180.45 33.35 180.55 22.25 192.9 14.65 199.75 14.5 199.85 7.6 205.25 7.25 205.45 7.1 205.6 7.05 205.6 6.95 205.7 3.95 207.7 3.65 207.95 -4.1 212.5 -8.9 214.75 -9.15 214.9 -19.25 218.5 -19.2 218.65 -18.4 218.6
M -216.25 255.75
L -217.1 259.5 -217.2 260.25 -217.3 260.6 -217.6 263.05 -217.7 263.45 -217.7 263.85 -217.95 266 -218.25 273.95 -218.1 274 -217.3 272.15 -217.15 271.9 -214.15 263.8 -213.7 262.2 -213.55 261.85 -213.25 260.75 -213.2 260.4 -212.3 256.6 -216.25 255.75
M -92.65 -58.95
L -92.8 -59 -103 -34.9 -109.35 -15.45
Q -109.75 -14.2 -110.1 -12.6
L -113.35 1.2 -113.4 1.6 -114.2 5.6 -110.25 6.35 -108.7 -1.45 -108.6 -1.7 -107.55 -6.35
Q -107.45 -7 -107.25 -7.6
L -105.9 -13.4 -105.85 -13.75 -96.75 -46.5 -92.65 -58.95
M -117.45 -158.65
L -117.5 -158.8 -124.65 -158.35 -125 -158.3 -134.25 -158
Q -134.55 -157.95 -135.15 -157.95
L -154.4 -158.2 -154.6 -158.25 -156.25 -158.3 -156.5 -154.35 -154.6 -154.25 -154.35 -154.2 -150.3 -154.1 -149.95 -154.05 -144 -154.15
Q -143.7 -154.2 -143.1 -154.2 -142.8 -154.25 -142.2 -154.25
L -141.35 -154.35
Q -140.7 -154.35 -140.4 -154.4
L -138.6 -154.55 -124.45 -156.85 -117.45 -158.65
M -31.85 -203.85
L -30.45 -201.5 -30.35 -201.3 -28.65 -198.95 -28.55 -198.85 -28.45 -198.7 -27.8 -198 -27.65 -198.05 -27.75 -202.45 -28.35 -205.75 -28.35 -205.85 -28.4 -205.95 -29.1 -207.9 -32.85 -206.55 -32.25 -204.8 -32.15 -204.6 -32.15 -204.5 -32.1 -204.45 -31.95 -204.05 -31.85 -203.85
M -73.65 -277.35
L -75.65 -277.85 -75.8 -277.7 -75.55 -277.45 -75.15 -276.95 -74.5 -276.3 -74.4 -276.15 -67.2 -269.1 -66.95 -268.9 -63.85 -265.85 -63.65 -265.6 -62.6 -264.55 -62.35 -264.35 -60.6 -262.55 -60.2 -262.2 -60.05 -262 -58.25 -260.2 -57.95 -259.95 -57.85 -259.8 -57.7 -259.7 -56.3 -258.45 -56.15 -258.5 -56.7 -260.75 -57.75 -263.3 -57.9 -263.55 -58 -263.8 -59.3 -266.05 -59.5 -266.3 -59.65 -266.6 -64.25 -271.8 -65.55 -272.85 -65.65 -272.95 -65.8 -273.05 -66.3 -273.45 -68.15 -274.7 -68.4 -274.9 -73.1 -277.15 -73.5 -277.25 -73.65 -277.35
M -58.05 -287.55
L -58.2 -287.65 -60.9 -290.2 -61.35 -290.5 -61.5 -290.65 -63.95 -287.5 -63.85 -287.4 -63.5 -287.15 -63 -286.65 -62.65 -286.4 -61.05 -284.85 -60.65 -284.35 -57.55 -281.3 -57.35 -281.05 -56.85 -280.6 -56.75 -280.45 -53.55 -277 -53.4 -277.05 -53.4 -277.75 -53.5 -278.55 -53.5 -278.7 -53.55 -278.8 -53.85 -280.2 -53.9 -280.35 -53.9 -280.5 -54 -280.8 -54.15 -281.1 -54.25 -281.45 -54.4 -281.75 -54.5 -282.1 -55.1 -283.45 -55.5 -284.15 -55.55 -284.3 -57.2 -286.6 -57.35 -286.75 -57.45 -286.9 -57.95 -287.4 -58.05 -287.55
M -53.4 -352.75
L -54.45 -353.15 -54.7 -353.2 -54.9 -353.3
Q -56 -353.55 -56.7 -353.55
L -57.05 -353.6 -57.25 -353.6 -57.4 -353.55 -58 -353.55 -58.85 -353.4 -59.15 -353.3 -59.2 -353.15 -58.9 -353 -58.6 -352.8 -57.6 -352.25 -57.45 -352.15 -57.15 -352 -56.55 -351.6 -56.4 -351.45 -56.3 -351.4 -56.25 -351.35 -55.9 -351.15 -55.85 -351.05 -55.75 -351 -54.7 -350 -54.6 -349.95 -54.5 -349.85 -54.4 -349.7 -54.25 -349.55 -54.1 -349.35 -53.85 -349.1 -53.8 -349 -53.65 -348.85 -53.6 -348.75 -53.5 -348.65 -53.4 -348.45 -53.3 -348.35 -53.25 -348.25 -53 -347.85 -52.95 -347.75 -52.85 -347.65 -52.75 -347.45 -52.6 -347.25 -51.3 -344.5 -51.25 -344.35 -51.25 -344.25 -50.85 -343.25 -50.8 -343 -50.7 -342.75 -50.35 -341.6 -50.2 -341.25 -50.05 -340.75 -50 -340.5 -49.75 -339.8 -49.65 -339.3 -48.25 -334.8 -48.2 -334.55 -48.1 -334.35 -48 -334 -47.85 -333.7 -47.7 -333.75 -47.45 -334.35 -47.4 -334.55 -47.3 -334.8 -46.8 -337.05 -46.8 -337.3 -46.65 -338.7 -46.7 -341.95 -47.05 -344.05 -47.15 -344.35 -47.2 -344.65 -47.8 -346.45 -48.1 -347.05 -48.2 -347.35 -48.5 -347.95 -48.7 -348.25 -48.85 -348.55 -49.2 -349.1 -49.4 -349.35
Q -49.5 -349.55 -49.6 -349.6
L -49.8 -349.9 -49.9 -350 -50 -350.15 -50.45 -350.6 -50.55 -350.75 -50.65 -350.85 -50.9 -351.05 -51 -351.15 -51.15 -351.25 -51.4 -351.5 -51.65 -351.65 -51.9 -351.85 -52.15 -352 -52.4 -352.2 -52.65 -352.35 -52.8 -352.4 -52.9 -352.5 -53.4 -352.75
M -18.35 -386.55
L -18.5 -386.4 -17 -384.75 -16.9 -384.6 -15.15 -382.55 -15.05 -382.4 -14.95 -382.3 -13.35 -380.1 -13.25 -380 -13.15 -379.85 -13 -379.55 -12.7 -379.15 -12.6 -379.05 -11.7 -377.6 -11.65 -377.45 -11 -376.4 -10.85 -376.05 -10.65 -375.75 -10.6 -375.6 -10.5 -375.45 -9.7 -373.85 -9.65 -373.8 -9.65 -373.75 -9.6 -373.7 -9.5 -373.55 -9.15 -372.75 -9.1 -372.7 -7.5 -368.8 -7.4 -368.65 -6.6 -366.15 -6.55 -365.85 -6.35 -365.3 -6.25 -364.7 -6.15 -364.45 -5.65 -361.2 -5.65 -360.95 -5.6 -360.75 -5.6 -360.4 -5.55 -360.05 -5.55 -359 -5.5 -358.6 -5.35 -358.55 -4.9 -359.3 -4.85 -359.4 -4.75 -359.55 -4.35 -360.6 -4.25 -360.8 -3.9 -361.95 -3.5 -364.6 -3.6 -367.75 -4 -369.85 -4 -370 -4.2 -370.8 -5.5 -374.35 -5.5 -374.4 -5.55 -374.45 -5.55 -374.5 -5.6 -374.55 -6 -375.45 -6 -375.5 -6.1 -375.6 -7.5 -378.1 -7.75 -378.4 -7.85 -378.6 -8.9 -380 -9.05 -380.15 -9.15 -380.3 -9.3 -380.45 -9.4 -380.6 -10.4 -381.7 -10.7 -381.95 -10.8 -382.1 -10.95 -382.2 -11.45 -382.7 -13.3 -384.1 -13.4 -384.2 -14.5 -384.9 -15 -385.15 -15.2 -385.3 -15.35 -385.35 -16.25 -385.8 -18.35 -386.55
M 120.8 -43.35
L 120.5 -43.35 120 -43.3 119.05 -43.3 118.65 -43.25 118.1 -43.25 117.9 -43.2 117.05 -43.1 115.4 -42.6 115.2 -42.55 113.55 -41.75 112.95 -41.35 112.85 -41.3 112.8 -41.25 112.7 -41.2 111.95 -40.6 112 -40.45 112.85 -40.05 112.95 -40.05 113 -40 115.55 -39.35 115.75 -39.35 116.6 -39.25 116.8 -39.2 117.4 -39.2 117.8 -39.15 118 -39.15 118.2 -39.2 118.6 -39.2 118.75 -39.25 118.95 -39.25 119.25 -39.3 120.1 -39.3 120.5 -39.35 120.85 -39.35 120.9 -43.3 120.8 -43.35
M 20.5 -185.65
L 20.6 -185.95 20.75 -186.75 20.75 -186.9 20.8 -187 21.05 -188.1 17.2 -189.05 16.9 -187.95 16.9 -187.8 16.85 -187.7 16.65 -186.7 16.6 -186.55 16.6 -186.35 16.45 -185.6 16.2 -182.45 16.9 -176.3 17.05 -175.8 17.05 -175.65 17.1 -175.55 17.15 -175.3 18.8 -170.55 20.35 -167.5 20.5 -167.55 20.4 -168.5 20.3 -168.95 19.8 -174.25 19.8 -175.2 19.75 -175.7 20.5 -185.65
M 48.05 -300.05
L 48 -300.15 47.4 -301.65 47.25 -301.6 46.85 -300.05 46.85 -299.95 46.8 -299.8 46.15 -295.2 46.15 -294.85 46 -293.3 46 -292.9 45.95 -292.55 45.95 -289.6 46 -289.25 45.75 -271.5 45.7 -271.1 44.4 -249.5 44.55 -249.45 48.3 -264.15 49.6 -273.65 50.05 -285.85 49.65 -293.85 49.6 -294.05 49.6 -294.25 48.2 -299.65 48.05 -300.05
M 73.95 -335
L 72.55 -336.55
Q 71.8 -337.25 70.8 -337.9
L 69.8 -338.4 69.65 -338.5 69.55 -338.55 68.15 -339 67.3 -339.15 67.05 -339.15 66.75 -339.2 64.85 -339.1 64.35 -339 62.9 -338.55 61 -337.65 60.85 -337.5 60.15 -337.05 58.6 -335.8 56.55 -333.6 54.5 -330.55 54.65 -330.4 56.8 -331.85 57 -331.95 59.75 -333.65 59.9 -333.7 60.05 -333.8 62.25 -334.8 62.55 -334.9 62.75 -335 63.55 -335.25 63.9 -335.3 64.25 -335.4 65.6 -335.5 66.25 -335.45 66.4 -335.45 66.7 -335.35 66.85 -335.35 67.65 -335.1 67.8 -335 67.95 -334.95 68 -334.9 68.1 -334.85 68.25 -334.8 68.3 -334.75 68.65 -334.55
Q 69 -334.3 69.8 -333.65
L 71.35 -331.9 71.8 -331.2 72.05 -330.9 73.5 -328.45
Q 74.05 -327.5 74.95 -325.6
L 78.8 -317.45 78.95 -317.5 79 -318.5 78.95 -318.85 78.95 -319.2 78.2 -325.15 77.8 -326.7
Q 77.4 -328.25 76.75 -329.95
L 75.1 -333.35 73.95 -335
M 4.75 -349
Q 2.55 -347.9 1.4 -347.15 0.65 -346.75 -0.05 -346.2
L -5.6 -341.8 -6.65 -340.75 -6.5 -340.6 6.55 -345.85 6.75 -345.9 6.95 -346 12.4 -347.4 12.85 -347.45 13 -347.5 13.3 -347.5
Q 15 -347.75 16.85 -347.6
L 17.3 -347.55 17.7 -347.45 17.9 -347.45 18.9 -347.2 19.05 -347.1 19.45 -347 19.65 -346.9 19.8 -346.85 20.2 -346.65 20.35 -346.6 21.2 -346.1 21.3 -346.05 21.35 -346 22.3 -345.3 22.55 -345 22.85 -344.75 23 -344.65 23.1 -344.5 23.25 -344.35 23.35 -344.2 24 -343.5 24.3 -343.05 24.55 -342.8 24.75 -342.5 24.9 -342.2 25.3 -341.6 27.45 -337.35 27.7 -336.9 27.85 -336.95 27.7 -339.9 27.15 -342.4 26.75 -343.5 26.7 -343.7 26.6 -343.9 26.45 -344.3 25.55 -346.05 25.4 -346.25 25.3 -346.45 24.85 -347.05
Q 24.25 -347.85 23.45 -348.6
L 23.35 -348.65 23.05 -348.95 21.45 -350.05 21.2 -350.15 20.7 -350.45 18.8 -351.15 16.25 -351.6 15.1 -351.65 12.85 -351.5 12.55 -351.45 12.4 -351.45 12.3 -351.4 10.65 -351.1 7.55 -350.2 4.75 -349
M 110.05 -378.75
L 110.65 -374.6 110.65 -374.2 110.7 -373.8 110.75 -373.6 110.75 -373.4 110.9 -371.55 110.7 -364.95 110.65 -364.6 110.65 -364.3
Q 110.3 -361.7 109.75 -359.25
L 109.5 -358.25 109.45 -357.9 108.9 -355.95 108.75 -355.6 108.25 -353.95 107.35 -351.6 107.2 -351.3 106.65 -349.95 106.55 -349.6 105.55 -347.5 105.5 -347.35 105.05 -346.5 105.05 -346.45 103.85 -344.15 103.65 -343.85 103.5 -343.55 102.65 -342.2 102.6 -342.05 98.9 -336.8 96.05 -333.5 91.3 -329.3 90.75 -328.95 90.65 -328.85 90.55 -328.8 85.9 -326.15 85.95 -326 88.7 -326.5 90.9 -327.25 91.4 -327.5 91.75 -327.6 92.2 -327.8 92.6 -328.05 93.55 -328.5 93.75 -328.65 94 -328.75 97.4 -331.05
Q 97.6 -331.15 97.65 -331.25
L 97.9 -331.4 98.4 -331.85
Q 98.6 -331.95 98.9 -332.25
L 99.3 -332.55 99.4 -332.7 100.4 -333.6 103.3 -336.7
Q 104.2 -337.75 105.1 -339.05
L 105.75 -339.95 105.9 -340.1 108.55 -344.55 108.6 -344.65 108.6 -344.7 108.65 -344.75 108.7 -344.9 109.15 -345.75 109.2 -345.9 109.4 -346.25 111.7 -352 112.7 -355.65
Q 113.2 -358.25 113.25 -358.55 113.7 -361.45 113.7 -364.15
L 113.7 -364.5 113.65 -364.8 113.6 -366.75 112.55 -372.8 111.4 -376.3 110.2 -378.8 110.05 -378.75
M 230.1 -248.9
L 230.15 -249.2 230.15 -249.25 230.2 -249.3 230.2 -249.35 230.15 -249.3 224.15 -240.35 223.8 -239.9 220.55 -235
Q 218.8 -232.3 217.85 -230.6
L 216.1 -227.3 216.05 -227.15 215.8 -226.65 215.75 -226.5 215.65 -226.35 215.55 -226 215.45 -225.85 215.4 -225.7
Q 214.3 -222.95 213.95 -220.25
L 213.8 -218.85 213.8 -218.7 213.75 -218.55 213.75 -217.85 213.7 -217.5 213.85 -213.6 215.35 -206.75 218.25 -199.85 219.45 -197.75 219.6 -197.8 217.55 -205.3 216.65 -211.2 216.6 -212.6
Q 216.5 -213.75 216.6 -214.9 216.65 -217.25 217.2 -219.65
L 217.85 -221.95 218 -222.25 218.65 -223.95 218.8 -224.2 218.85 -224.35 219.05 -224.75 219.15 -224.9 219.2 -225.05 219.35 -225.3 219.4 -225.45 219.5 -225.55 219.95 -226.4 227.75 -238.5
Q 228.8 -240.05 228.9 -240.2
L 233.5 -247.05 233.55 -247.2 233.65 -247.35 233.75 -247.55 233.8 -247.6 233.8 -247.65 233.95 -247.95 233.95 -248.05 234 -248.1 234.05 -248.45 234.05 -248.6 234.1 -248.7 230.1 -248.7 230.1 -248.9
M 222.7 -270.7
L 221.45 -270.5 221.35 -270.5 221.2 -270.45 220.6 -270.3 220.5 -270.25 221.75 -266.5 221.9 -266.5 221.95 -266.55 222.15 -266.55 222.55 -266.65 223.4 -266.7 223.7 -266.75 225.25 -266.75 227.6 -266.5 227.75 -266.45 227.85 -266.4 228.1 -266.35 228.25 -266.35 228.4 -266.3 229.75 -266
Q 229.8 -266 230.3 -265.85
L 230.85 -265.7 230.95 -265.65 231.05 -265.65 231.1 -265.6 231.4 -265.5 231.7 -265.45 231.8 -265.4 231.85 -265.4 233.1 -265 233.2 -264.95 234.45 -264.5 234.7 -264.35 236.85 -263.35 242.55 -259.75 242.7 -259.6 242.9 -259.5 244.95 -258 245.1 -258.15 244.15 -259.7 243.7 -260.3 243.6 -260.5 243.45 -260.65 243.2 -261 240 -264.65 239.55 -265.05 236.4 -267.45 233.9 -268.8 233.1 -269.1 233.05 -269.15 233 -269.15 232.95 -269.2 232.35 -269.4 232.3 -269.4 232.2 -269.45 229.85 -270.15 227.7 -270.5
Q 226.95 -270.65 225.45 -270.75
L 223.5 -270.75 223.05 -270.7 222.7 -270.7
M 72.95 -396.95
L 70.3 -398.5 70.15 -398.35 71.1 -397.35 71.25 -397.15 71.45 -397 74.15 -393.45 74.2 -393.35 74.25 -393.3 74.35 -393.1 74.85 -392.35 76.1 -389.8
Q 76.55 -388.95 76.85 -387.9 77.35 -386.45 77.5 -385.8
L 77.65 -385.3 77.7 -385 77.75 -384.85 77.75 -384.75 78.35 -381.6 78.35 -381.3 78.55 -379.5 78.55 -379.05 78.6 -378.9 78.65 -374.4 78.6 -374.25 78.6 -373.95
Q 78.55 -371.65 78.2 -369
L 77.15 -363.7 76.8 -362.65 76.75 -362.35 76.7 -362.2 76.65 -362.1
Q 76.55 -361.7 75.9 -360.05
L 75.85 -359.9 73.8 -355.55 71.8 -352.45 71.6 -352.2 71.25 -351.65 70.85 -351.2
Q 69.95 -350 69.75 -349.8
L 69.35 -349.3 69.5 -349.15 70.7 -349.9 70.9 -350.05 71.1 -350.15 73.1 -351.75 75.6 -354.25 77.5 -356.75 79.25 -359.8 79.35 -360.05 79.45 -360.2 81.3 -365.1 81.35 -365.45 81.45 -365.75 82.15 -369.05 82.15 -369.2 82.2 -369.35 82.65 -376.15 82.6 -376.5 82.45 -379.4 82.4 -379.55 82.4 -379.9 81.75 -383.5 81.55 -384.1 81.5 -384.45 80.2 -388 78.85 -390.65 76.95 -393.25 75.7 -394.6 75.65 -394.7 74.7 -395.6 74.05 -396.1 73.8 -396.35 72.95 -396.95
M 24.6 -399.25
L 24.55 -399.1 26.25 -398 26.35 -397.9 26.5 -397.85 27.5 -397.1 27.6 -397 28 -396.7 29.4 -395.45 30.95 -393.7 31.05 -393.5 31.2 -393.35 32.95 -390.35 33.45 -389.3 33.45 -389.15 33.85 -388.15 33.9 -387.95 34.3 -386.75 34.3 -386.65 35.1 -382.8 35.1 -382.55 35.15 -382.4 35.15 -382.3 35.2 -381.75 35.25 -381.6 35.3 -380.7
Q 35.55 -378.6 35.45 -376.5
L 35.3 -373.5 35.2 -373 35.2 -372.75 35.15 -372.5
Q 35.15 -372.3 34.85 -370.6
L 34.5 -368.75 34.4 -368.55 34.15 -367.45 33.4 -365.05 33.25 -364.7 33.15 -364.35 32.85 -363.65 32.75 -363.3 32.6 -363 32.5 -362.65 31 -359.45 30.9 -359.15 30.65 -358.7 30.8 -358.55 33.05 -360.8 35.7 -364.45 36.1 -365.2
Q 36.15 -365.3 36.55 -366.05
L 36.8 -366.45 37.4 -367.8 37.55 -368.3 37.75 -368.75 38.65 -371.85 38.75 -372.1 39.25 -375.2 39.25 -375.5 39.3 -375.75 39.4 -376.95 39.25 -381.6 39.2 -381.9 39.2 -382.1 39.15 -382.2 39.1 -382.75 39.1 -382.9 39.05 -383.05 38.55 -385.7 37.95 -387.65 37.9 -387.75 37.85 -387.9
Q 37.5 -388.95 36.95 -390.05
L 36.65 -390.65 36.55 -390.8 36.45 -391.05 35.1 -393.1 35 -393.2 34.95 -393.3 34.45 -393.9 34.25 -394.1 34.1 -394.3 33.05 -395.35 32.1 -396.1 31.95 -396.25 31.05 -396.9 28.95 -398 28.8 -398.1 28.65 -398.15 28.35 -398.3 26.9 -398.8 26.8 -398.8 26.65 -398.85 25.15 -399.2 24.6 -399.25
M -4.5 234.9
L -4.9 235.05 -5.05 235.05 -13.55 237 -12.9 240.95 -8 239.9 -7.55 239.75 -7.05 239.65 -6.8 239.55 -6.55 239.5 -2.85 238.15 2.45 235.55 5.05 233.95 5.2 233.9 5.3 233.8 10 230.25 9.85 230.1 8.35 230.7 8.05 230.85 0.65 233.5 0.4 233.55
Q 0 233.65 -0.1 233.75
L -4.5 234.9
M -0.1 76.15
L -19.25 90.45 -29.75 99.4
Q -30.75 100.25 -37 106
L -39.7 108.5 -36.95 111.45 -34.25 108.9
Q -31.05 105.9 -27.1 102.4
L -9.4 87.1 1.45 78.4
Q 3.8 76.6 7.7 73.85 9.7 72.4 13.65 69.8
L 23.9 63.7
Q 24.4 63.5 24.95 63.15
L 28.1 61.65 28.45 61.45 31.05 60.3 31 60.15 22.35 63.4 12.7 68.25
Q 10.1 69.7 6.4 71.95 3.75 73.55 -0.1 76.15
M -58.5 54.2
Q -58.4 54.15 -57.8 53.7
L -57.2 53.3 -57.35 53.15 -84.25 69.4 -99.95 80.75 -109.35 88.4 -106.8 91.45 -95.55 82.35 -58.5 54.2
M -149.6 -204.8
L -149.9 -204.35 -162.2 -181.45 -162.5 -181 -162.75 -180.5 -164.7 -177.3 -164.75 -177.25 -165 -176.75 -167.65 -172.65 -164.3 -170.5 -161.65 -174.6 -161.55 -174.8 -157.05 -182.4 -152 -193.7 -147.9 -207.75 -148.05 -207.8 -149.6 -204.8
M 38.55 -115.45
L 32.2 -123.75 29.05 -121.2 32.15 -117.35 32.5 -117 32.8 -116.6 35.9 -113.15 35.9 -113.1 46.3 -102.2 46.45 -102.35 38.75 -115.2 38.65 -115.3 38.65 -115.35 38.55 -115.45 Z"/>
</g>

<path id="Levity_0_Layer0_0_1_STROKES" stroke="#000000" stroke-width="4" stroke-linejoin="miter" stroke-linecap="butt" stroke-miterlimit="3" fill="none" d="
M 24.6 -399.2
Q 24.5 -399.2 24.35 -399.2 6.35 -396.7 -12.45 -389.1 -15.55 -387.85 -18.45 -386.5
M -5.45 -358.6
Q 9.95 -361.3 30.75 -358.65
M 24.6 -399.2
Q 41 -401.5 59.55 -399.85 65.15 -399.35 70.25 -398.45 91.85 -394.6 105.2 -383.5 107.9 -381.25 110.15 -378.8 121.4 -366.5 121.05 -349.35 120.75 -331.95 104.9 -319.25 99.85 -315.2 93.8 -312.1 88.6 -309.75 88.35 -309.65 98.9 -311.9 108.8 -316.75 119.1 -321.75 124.8 -327.6 136.25 -339.45 141.05 -355.1 143.7 -349.1 141.9 -338.5 139.4 -324 128.05 -315.1 119.95 -308.75 103.75 -307.25 98.55 -306.75 93.2 -306.85 89.8 -306.9 88.45 -307.05
L 88.5 -304.7 91.05 -302.65
Q 96.9 -297.8 101.8 -292.3 101.1 -280.65 95.5 -268.3
L 93.55 -264.25 91.1 -263.45 90.65 -260.7
Q 85.7 -230.6 72.8 -212.45 71.5 -199.5 72.1 -187.95 109.15 -175.95 143.55 -174.8 132.1 -164.6 119.75 -155.75 126.25 -154 139.95 -153 145.3 -152.6 164.05 -151.75 172.05 -158.65 183.1 -174.2 192.3 -187.2 200.95 -202.25 203.35 -207.35 195.65 -222.9 191.4 -231.15 189.5 -234.8 186.25 -241.15 185.5 -243.85 184.75 -246.65 186.2 -259.45 187.5 -271.05 188.45 -274.6 197.4 -298.6 198.4 -301.35 199.2 -303.6 200.9 -309.95 201.45 -312 201.65 -315.35 201.9 -319.6 202 -320.3 202.75 -325.35 207.4 -325.35 211.55 -325.35 215.15 -320.8 218.55 -316.55 218.75 -311.7 221.15 -314.15 224.65 -316.75 228.15 -319.4 233.1 -318.35 238 -317.3 240.05 -310.15 242.05 -303 245.4 -287.3 246.55 -285.75 248 -283.15 249.4 -280.6 250.05 -278.35 250.7 -276.1 251.45 -272.45 252.15 -268.8 252.35 -268.1 252.5 -267.4 252.55 -267.1 254.3 -253 254.3 -239.45 254.3 -216.65 251.4 -202.9 250.15 -197.1 247.7 -188.9 234.45 -158.25 212.1 -128.25 190.2 -98.8 180 -97.05 160.5 -93.65 136.7 -95.2 110.6 -96.9 85.55 -104.6 86.75 -91.8 86.65 -76.8 104.2 -60.2 120.9 -41.35 129.05 -41.2 134.05 -39.6 140.55 -37.5 152.9 -29.1 159.45 -24.65 167.65 -16.8 172 -12.6 177.55 -6.85 180.5 -4 189.55 0.55 198.55 5.1 206.55 7 214.55 8.9 219.05 11.1 223.55 13.3 223.95 17.45 224.35 21.55 218.55 26.1 212.7 30.65 200 30.05 187.25 29.45 180 21.35 176.8 17.25 175.05 15.75 172.1 13.2 167.85 13.2 163.25 13.2 161.6 15.9 160.7 17.4 160.7 20.3 160.7 20.7 162.2 29.95 163.5 37.85 163.95 43.05 168.8 58.55 172.25 70.85 178.05 91.55 178.05 105.25 178.05 115.4 173.05 124 168 132.75 161.7 132.75 159 132.75 157.1 131.85 156.7 131.65 156.35 131.45 149.95 140.5 140.95 140.5 128.5 140.5 128.5 132.5 128.5 125.8 132.55 118.55 131.5 118.65 130.45 118.65 125.35 118.65 122.05 115.25 118.7 111.8 118.95 107.85 119.2 103.85 123.9 95.55 127.85 88.5 133.3 75.8 117.05 13.6 95.55 -6.25 89.05 -12.45 82.3 -18.4 81.15 -9.6 79.7 -0.3 79.15 3.3 78.55 7 76.45 19.85 74.8 32 75.05 35.05 74 37.75 75.85 49.95 70.8 109.75 70.1 117.85 69.6 125.05 69.55 125.2 69.55 125.3 68.6 137.35 68.1 146.9 66.65 172.75 68.15 180.05 53.05 182 40.65 181.85 41.2 182.85 41.6 184.05 43.05 188.6 43.05 197.7 43.05 255.15 23.4 284.7 15.25 297 4.3 303.2 -5.45 308.75 -16.05 308.75 -29.45 308.75 -33.75 302.8 -38.1 296.8 -34.7 289.75 -31.35 282.7 -22.15 265.95 -12.9 249.15 -13.25 239 -18.2 239.75 -19.8 240 -39.45 242.8 -52.85 233.45 -58.6 229.4 -61.65 223.9 -64.65 218.5 -64.3 213 -62.95 191.25 -54.75 171.45 -74.7 173.1 -92.25 168.25 -94 170.35 -95.9 172.6 -98.95 176.2 -116.5 195.7 -129.2 209.9 -135.85 218.6 -164.65 256.35 -175.7 282.4 -185.95 306.65 -185.95 333.6 -185.95 351.35 -181.7 368 -180.65 372.15 -178.8 378.5 -177.5 383.35 -177.5 385.7 -177.5 390.95 -181.35 395.05 -186.6 400.6 -196.95 400.6 -204.15 400.6 -211.4 396.75 -219.1 392.65 -225.15 385.1 -239.5 367.15 -239.5 337.65 -239.5 330.65 -237.45 313.45 -236.15 302.4 -234.55 291.1 -232.4 276.55 -229.3 270.25 -224.85 261 -214.3 256.2 -211.65 244.5 -209.15 234.1 -199.25 193.35 -187.95 174.8 -176.7 156.25 -162.05 142.35 -154.15 134.85 -151.85 130.75 -148.85 125.5 -147.1 114.4 -153.4 105.9 -156.65 96.1 -146.2 83.15 -136.1 71.8 -128.5 63.2 -121.1 55.6 -116.05 50.3 -111 45.45 -82.75 18 -67.4 6.8 -64.5 0.7 -61.8 -5.55 -88.55 -14.15 -112.25 6 -174.1 21.85 -223.25 -13.5 -189.9 -74.05 -141.8 -127.85 -170.95 -108.15 -215.5 -100.75 -198.65 -127.7 -185 -157.2 -184.1 -159.15 -183.25 -161.05 -206.65 -174.7 -223.55 -188.45 -237.9 -200.1 -254.3 -217.55 -216.5 -218.35 -176.55 -227.05 -176.15 -258.2 -167.45 -287.9 -158.65 -318.15 -141.65 -345.5 -129.55 -364.95 -115.7 -375.1 -101.65 -385.4 -83 -388.1 -70.25 -389.95 -55.4 -390.15 -48.7 -391.75 -37.6 -389.8 -26.9 -387.9 -22.35 -384.65 -20.45 -385.6 -18.45 -386.5
M 232.1 -248.7
Q 232.15 -249.65 229.1 -247.55 225.7 -245.2 222.5 -241.3 215.35 -232.6 212.1 -231.1 208.8 -229.6 206.45 -232.15 204.05 -234.75 204.05 -238.95 204.05 -240.8 204.45 -242.85 204.05 -243.5 204.2 -248.45 204.25 -252.4 205.5 -258.75 205.9 -260.7 205.8 -260.7 205.2 -260.7 204.7 -262.4 203.05 -271 203.05 -273.4 202.45 -273.85 201.9 -275.1 201.3 -276.5 201.3 -277.6 201.3 -290.4 213.55 -305.8 216.1 -309.05 218.75 -311.7
M 245.4 -287.3
Q 244.55 -288.45 239.25 -295.8 233.95 -303.15 230.1 -303.55 226.2 -303.95 219.2 -298.65 212.2 -293.35 209.8 -290.35 207.35 -287.4 205.2 -283.6 203.05 -279.8 203.05 -273.4
M 252.55 -267.1
Q 250.25 -274.1 241.85 -281.7 233.4 -289.35 226.25 -289.2 219.1 -289.1 213.05 -277.4 209.45 -270.15 207.15 -263.85 206 -260.65 205.5 -258.75
M 221.15 -268.4
Q 216.9 -267.05 211.4 -258 205.45 -248.2 204.45 -242.85
M 69.45 -349.25
Q 75.25 -346.75 79.55 -343.8 83.55 -334.8 85.25 -328.85 85.6 -327.55 85.95 -326.1
M 88.35 -309.65
L 88.45 -307.05
M -57.3 -322.75
Q -47.1 -329.85 -35.95 -334.55 -0.05 -340.35 40 -328.5 66.35 -320.75 84.8 -307.45
L 88.5 -304.7
M 85.95 -326.1
Q 87.6 -319.05 88.35 -309.65
M 30.75 -358.65
Q 34.3 -358.2 38.05 -357.6 57.2 -354.5 69.45 -349.25
M 3.9 -305.75
Q 4.55 -312.75 3.2 -317.7 1.85 -322.65 -0.8 -322.65 -3.5 -322.65 -5.9 -317.7 -8.3 -312.75 -8.95 -305.75 -9.75 -298.75 -8.35 -293.8 -7 -288.85 -4.35 -288.85 -1.65 -288.85 0.75 -293.8 3.1 -298.75 3.9 -305.75 Z
M 69.25 -287
Q 69.9 -294 68.55 -298.95 67.2 -303.9 64.55 -303.9 61.85 -303.9 59.45 -298.95 57.05 -294 56.4 -287 55.6 -280 57 -275.05 58.35 -270.1 61 -270.1 63.7 -270.1 66.1 -275.05 68.45 -280 69.25 -287 Z
M 48.05 -285.15
Q 54.05 -272.25 57.55 -259.75 71.1 -258.8 84.15 -261.65
L 91.1 -263.45
M 44.75 -232.2
Q 37.2 -231.7 37.15 -231.7 30.8 -231.7 25.55 -236.5 21.35 -240.35 14.6 -250.85 9.25 -259.2 3.9 -258.65 -1.3 -258.1 -1.95 -249.45 2.95 -238.25 13.05 -231.7 23.35 -225.05 34.65 -225.05 38.65 -225.05 40.55 -227 41.65 -228.1 44.75 -232.2 45.25 -232.25 45.8 -232.3 54.35 -232.25 54.25 -229.3 54.05 -224.15 49.95 -220.35 44.7 -215.55 35 -215.55 21 -215.55 10 -223.7 -3.05 -233.35 -2 -249.2 -2 -249.35 -1.95 -249.45
M 39.55 -189.25
Q 55.35 -192.7 67.25 -205.6 70.2 -208.8 72.8 -212.45
M -36.45 -296.05
Q -9.9 -275.95 20.55 -264
L 48.05 -285.15
M 57.2 -183
Q 65.45 -179.15 80.85 -171.05 100.15 -161.5 116.35 -156.7 118.05 -156.2 119.75 -155.75
M 57.2 -183
L 57.2 -182.95
Q 57.55 -153.6 50.7 -138 46.85 -129.1 38.85 -116.65 63.55 -98.7 86.65 -76.8
M 39.55 -189.25
Q 45.6 -188.2 53.35 -184.8 55 -184.05 57.2 -183 81 -152.85 85.55 -104.6
M -33.1 -213.5
Q -29.85 -210.55 -25 -207.3 -20.2 -204.1 -13.8 -200.55 4.1 -190.6 19.15 -188.6 20.7 -188.4 22.3 -188.25 31.45 -187.5 39.55 -189.25
M -54.25 -205.95
Q -46.35 -203.95 -39.2 -197.8 -31.2 -190.9 -8.1 -166.25 16.7 -139.75 30.65 -122.5 34.75 -119.65 38.85 -116.65
M -82.7 -162.15
Q -82.6 -161.75 -82.45 -161.3 -76.5 -141.6 -51.9 -117.45 -24.8 -90.9 20.45 -63.55 53.8 -43.45 82.3 -18.4
M 132.55 118.55
Q 144.3 117.1 153.7 99.45 164.35 79.5 164.35 52.1 164.35 50.35 164.3 48.45 164.25 48.15 164.25 47.9 164.2 46.7 164.1 45.45 164.05 44.35 163.95 43.05
M 156.35 131.45
Q 156.55 131.1 156.8 130.8 159.55 126.65 161.85 120.75 168.3 104.05 168.3 81.95 168.3 71.65 166.7 61.2 166.35 58.8 164.25 47.9
M 74 37.75
Q 73.6 38.85 64.9 61.35 58.7 77.25 55 88.15 51.75 97.75 49.5 106.2 49.05 107.7 48.7 109.15 48.55 109.8 48.4 110.45 62.65 114.9 69.6 125.05
M -67.4 6.8
Q -52.65 35.9 -29.85 49.25 -10.5 60.55 12.95 59.65 32.65 58.85 51.1 49.9 67.55 41.95 74.8 32
M -55.85 -20.55
Q -39.55 1.65 -17.95 12.85 0.95 22.6 21.85 23.05 40.45 23.4 56.7 16.5 72 10 79.7 -0.3
M 44.95 127.8
Q 44.7 129.4 44.55 130.95 63.2 136 68.1 146.9
M 44.55 130.95
Q 44.05 135.45 44.05 140.3 37.45 140.25 25.35 143 15.5 145.2 12 146.65 22.35 147.05 33.1 150.1 43.65 153.1 49.4 157.1 62.6 165.3 68.15 180.05
M 48.4 110.45
Q 46 119.9 44.95 127.8 12.1 99.4 -56.3 128.15 -63.1 135.45 -69.3 142.9 -72.4 146.65 -82.45 159.6 -74.5 155.3 -63.85 151.25 -51.4 146.45 -39.15 143.65 -34.3 142.5 -29.15 141.5 -10.5 137.9 13.35 137.3 18.2 137.15 23.45 137.7 28.25 138.15 44.05 140.3
M 12 146.65
Q 12.3 139.2 13.35 137.3
M 37.35 178.6
Q 43.65 169.85 47.85 160.65 48.65 158.85 49.4 157.1
M 40.65 181.85
Q 39.4 179.55 37.35 178.6
M -38.35 110
Q -18.55 95.95 8.45 95.2 34.45 94.5 49.5 106.2
M -22.35 -384.65
Q -29.3 -381.15 -35.1 -377.05 -46 -369.3 -56.25 -357.1 -57.8 -355.25 -59.2 -353.25
M -47.8 -333.75
Q -36 -346.65 -28.25 -350.9 -20.8 -354.95 -10.95 -357.45 -8.3 -358.1 -5.45 -358.6
M -84.85 -289.1
Q -85.25 -291.75 -85.95 -300.4 -86.6 -308.55 -86.05 -322.75 -85.5 -336.95 -77.25 -357.5 -69.05 -378.1 -55.4 -390.15
M -57.3 -322.75
Q -64.95 -317.5 -73.65 -309.4 -74.7 -308.5 -75.7 -307.55 -76.95 -297.85 -73.9 -293.55 -68.1 -293.3 -62.75 -289.1 -49.95 -293.95 -36.45 -296.05 -39.3 -315.75 -35.95 -334.55
M -59.2 -353.25
Q -65.05 -345 -68.55 -334.05 -71.7 -324.3 -73.65 -309.4
M -57.3 -322.75
Q -52.25 -328.85 -47.8 -333.75
M -84.85 -289.1
Q -87.3 -285.8 -87.6 -279.95 -88.05 -271.75 -85 -263.25 -82.75 -256.85 -78.4 -252.2 -73.25 -246.65 -66.25 -244.75 -61.1 -243.35 -56.4 -243.55 -54 -243.65 -52.7 -244.05 -50.65 -236.85 -46.45 -229.95 -42.35 -223.3 -35.7 -216.05 -34.55 -214.8 -33.1 -213.5 -32.25 -210.9 -31 -207.25
M -73.9 -293.55
Q -75.9 -293.65 -78 -293.3 -82.5 -292.45 -84.85 -289.1
M -54.25 -205.95
Q -50.7 -206.15 -45.65 -206.45 -35.45 -207.1 -31 -207.25
M -54.25 -205.95
Q -55.55 -206.3 -56.85 -206.5 -66.65 -208.15 -74.7 -203.05 -80.4 -199.45 -82.9 -189.35 -83.35 -187.75 -83.65 -185.9 -85.9 -173.6 -82.7 -162.15 -81.75 -152.3 -78.95 -141.85 -75.9 -130.35 -64.5 -101.8 -54.7 -77.2 -52.25 -62.7 -48.5 -41 -55.45 -21.75 -55.5 -21.55 -55.8 -21.15 -56 -20.75 -55.85 -20.55 -58.65 -12.95 -61.8 -5.55
M -166 -171.6
Q -170.4 -164.95 -175.5 -158.75 -166.05 -156.95 -156.4 -156.35
M -82.9 -189.35
Q -86.55 -184.65 -103.35 -167.95 -124.05 -147.4 -137.65 -132.45 -139.75 -130.15 -141.8 -127.85
M -108.1 89.95
Q -109.6 91.15 -111.05 92.45 -84.5 124.95 -53.4 125.05 -46.15 117.45 -38.35 110
M -121.1 55.6
Q -120.95 78.1 -108.1 89.95
M -122.35 102.4
Q -122 102.1 -121.65 101.8 -116.5 97.05 -111.05 92.45
M -126.35 106.2
Q -124.4 104.25 -122.35 102.4 -133.8 92.75 -136.1 71.8
M -147.1 114.4
Q -144.5 117.95 -141.35 121.25 -134.15 113.55 -126.35 106.2 -110.75 135.85 -69.3 142.9
M -141.35 121.25
Q -142.85 122.8 -144.3 124.4 -146.25 126.55 -148.15 128.7 -124.2 159.35 -92.25 168.25
M -56.3 128.15
Q -54.85 126.6 -53.4 125.05
M -54.05 169.8
Q -54.4 170.6 -54.75 171.45
M -39.15 143.65
Q -43 148.95 -46.15 154.3 -50.65 161.9 -54.05 169.8 -67.25 166.7 -82.45 159.6"/>
</defs>

<g transform="matrix( 0.9936065673828125, 0, 0, 0.9936065673828125, 257.15,400) ">
<g transform="matrix( 1, 0, 0, 1, 0,0) ">
<use xlink:href="#Levity_0_Layer0_0_FILL"/>

<use xlink:href="#Levity_0_Layer0_0_1_STROKES"/>

<use xlink:href="#Levity_0_Layer0_0_STROKES_1_FILL"/>
</g>
</g>
</svg>
